<svg width="24" height="24" viewBox="0 0 24 24" fill="none" xmlns="http://www.w3.org/2000/svg">
<path d="M19.0318 17.1818C19.4934 17.442 19.6513 18.0157 19.384 18.4592C19.1168 18.9086 18.5277 19.0624 18.0721 18.8022C17.6106 18.542 17.4526 17.9683 17.7199 17.5248C17.9871 17.0754 18.5762 16.9216 19.0318 17.1818Z" fill="#FFDD7A"/>
<path d="M4.54711 13.8572C4.81435 14.3067 4.65643 14.8803 4.19485 15.1346C3.73326 15.3948 3.14412 15.241 2.88296 14.7916C2.61573 14.3421 2.77364 13.7685 3.23523 13.5142C3.69682 13.254 4.27987 13.4078 4.54711 13.8572Z" fill="#FFDD7A"/>
<path d="M14.9687 11.5741V12.4022C14.8958 12.4081 14.3309 12.4318 14.2641 12.4141L13.9726 13.0943C14.0333 13.1298 14.4099 13.538 14.4585 13.5912L13.8572 14.1768C13.8025 14.1295 13.3895 13.7569 13.347 13.6977L12.6486 13.9816C12.6607 14.0467 12.6364 14.5968 12.6364 14.6678H11.7922C11.7861 14.5968 11.7618 14.0467 11.7801 13.9816L11.0816 13.6977C11.0452 13.7569 10.6261 14.1295 10.5714 14.1768L9.97014 13.5912C10.0187 13.538 10.4014 13.1357 10.456 13.0943L10.1645 12.4141C10.0977 12.4259 9.53284 12.4022 9.45996 12.4022V11.5741C9.53284 11.5682 10.0977 11.5445 10.1645 11.5622L10.456 10.882C10.3953 10.8465 10.0187 10.4383 9.97014 10.3851L10.5714 9.79945C10.6261 9.84677 11.0391 10.2194 11.0816 10.2786L11.7801 9.99466C11.7679 9.92959 11.7922 9.37946 11.7922 9.30847H12.6425C12.6486 9.37946 12.6729 9.92959 12.6546 9.99466L13.3531 10.2786C13.3895 10.2194 13.8086 9.84677 13.8633 9.79945L14.4646 10.3851C14.416 10.4383 14.0333 10.8406 13.9787 10.882L14.2702 11.5622C14.337 11.5445 14.8958 11.5682 14.9687 11.5741ZM12.9583 12.7039C13.3652 12.3076 13.3652 11.6628 12.9583 11.2665C12.5514 10.8701 11.8894 10.8701 11.4824 11.2665C11.0755 11.6628 11.0755 12.3076 11.4824 12.7039C11.8894 13.1062 12.5514 13.1062 12.9583 12.7039Z" fill="#496EC5"/>
<path d="M14.3977 2.70667C14.9261 2.70667 15.3573 3.12653 15.3573 3.64101C15.3573 4.15549 14.9261 4.57535 14.3977 4.57535C13.8693 4.57535 13.4381 4.15549 13.4381 3.64101C13.432 3.12653 13.8632 2.70667 14.3977 2.70667Z" fill="#FFDD7A"/>
<path fill-rule="evenodd" clip-rule="evenodd" d="M11.5461 9.31434C11.5461 9.17876 11.659 9.06885 11.7982 9.06885H12.6424C12.7735 9.06885 12.8827 9.16672 12.8936 9.29395C12.8972 9.33687 12.905 9.49823 12.9095 9.6526C12.9114 9.71676 12.9128 9.78206 12.9132 9.83965L13.2886 9.99226C13.3311 9.95159 13.3801 9.90608 13.4285 9.86169C13.5459 9.75407 13.6661 9.64743 13.6957 9.62183C13.7954 9.53548 13.947 9.53982 14.0414 9.63173L14.6427 10.2174C14.737 10.3093 14.7415 10.4569 14.6528 10.554C14.6259 10.5835 14.5159 10.6997 14.4073 10.812C14.3624 10.8586 14.3168 10.9054 14.2766 10.946L14.4368 11.3199C14.4952 11.3207 14.5617 11.3224 14.6273 11.3242C14.7018 11.3263 14.7729 11.3286 14.8315 11.3304C14.9037 11.3327 14.9571 11.3344 14.9746 11.3344C15.1138 11.3344 15.2267 11.4444 15.2267 11.5799V12.4081C15.2267 12.5358 15.1262 12.6421 14.9955 12.6527C14.9515 12.6563 14.7858 12.6638 14.6273 12.6683C14.5614 12.6701 14.4944 12.6715 14.4353 12.6718L14.2782 13.0383C14.3195 13.0799 14.3658 13.1277 14.4108 13.175C14.5201 13.2897 14.6276 13.4064 14.6528 13.434C14.7415 13.5311 14.737 13.6788 14.6427 13.7707L14.0414 14.3563C13.947 14.4482 13.7954 14.4526 13.6957 14.3662C13.6653 14.3399 13.546 14.2327 13.4302 14.1258C13.3817 14.0811 13.3329 14.0355 13.2904 13.995L12.9094 14.1499C12.9085 14.2067 12.9068 14.2715 12.905 14.3354C12.9028 14.408 12.9005 14.4772 12.8985 14.5343C12.8962 14.6047 12.8944 14.6566 12.8944 14.6737C12.8944 14.8093 12.7816 14.9192 12.6424 14.9192H11.7982C11.6671 14.9192 11.5579 14.8213 11.547 14.6941C11.5433 14.6512 11.5356 14.4898 11.531 14.3354C11.5291 14.2713 11.5277 14.206 11.5274 14.1484L11.152 13.9958C11.1095 14.0364 11.0605 14.082 11.012 14.1263C10.8946 14.234 10.7744 14.3406 10.7448 14.3662C10.6451 14.4526 10.4935 14.4482 10.3991 14.3563L9.79787 13.7707C9.7035 13.6788 9.69905 13.5311 9.78771 13.434C9.81462 13.4045 9.92463 13.2884 10.0332 13.176C10.0781 13.1294 10.1237 13.0827 10.1639 13.042L10.0037 12.6681C9.94537 12.6673 9.87882 12.6657 9.81323 12.6638C9.73874 12.6618 9.66764 12.6595 9.609 12.6576C9.53679 12.6553 9.48346 12.6536 9.46592 12.6536C9.32671 12.6536 9.21387 12.5437 9.21387 12.4081V11.5799C9.21387 11.4523 9.31435 11.3459 9.44499 11.3353C9.48905 11.3317 9.65473 11.3242 9.81323 11.3198C9.8791 11.3179 9.94615 11.3165 10.0053 11.3162L10.1623 10.9497C10.121 10.9082 10.0748 10.8603 10.0297 10.813C9.92045 10.6984 9.81293 10.5817 9.78771 10.554C9.69905 10.4569 9.7035 10.3093 9.79787 10.2174L10.3991 9.63173C10.4935 9.53982 10.6451 9.53548 10.7448 9.62183C10.7753 9.64817 10.8945 9.75535 11.0104 9.86224C11.0588 9.90693 11.1077 9.95253 11.1501 9.99302L11.5312 9.8381C11.532 9.78131 11.5337 9.71649 11.5356 9.6526C11.5377 9.58005 11.5401 9.51081 11.542 9.45369C11.5444 9.38336 11.5461 9.33142 11.5461 9.31434ZM12.0428 9.55983C12.0417 9.59517 12.0405 9.63144 12.0395 9.66669C12.0372 9.74358 12.0354 9.8187 12.0348 9.87804C12.0345 9.90786 12.0346 9.93204 12.035 9.94971C12.0353 9.95952 12.0356 9.96482 12.0357 9.96674C12.0514 10.0767 11.9891 10.184 11.8831 10.2271L11.1846 10.511C11.0777 10.5545 10.9546 10.5213 10.8857 10.4314C10.8857 10.4314 10.881 10.4262 10.8725 10.4174C10.8597 10.4042 10.842 10.3867 10.8201 10.3656C10.7765 10.3235 10.7208 10.2714 10.6637 10.2187C10.6368 10.1939 10.6099 10.1692 10.5842 10.1458L10.3239 10.3994C10.3482 10.4252 10.3737 10.4522 10.3992 10.479C10.4525 10.535 10.5048 10.5889 10.5468 10.6304C10.5679 10.6513 10.5849 10.6675 10.5972 10.6786C10.6012 10.6822 10.604 10.6847 10.6059 10.6863C10.7028 10.7518 10.7406 10.875 10.6946 10.9824L10.4031 11.6627C10.3567 11.7708 10.2389 11.8312 10.1224 11.8091C10.12 11.8089 10.1165 11.8087 10.1118 11.8085C10.0952 11.8077 10.0717 11.8072 10.0417 11.8071C9.98207 11.807 9.90595 11.8084 9.82769 11.8105C9.79029 11.8116 9.7532 11.8128 9.71797 11.814V12.1698C9.75426 12.1709 9.7915 12.172 9.82769 12.1731C9.90663 12.1753 9.98377 12.1771 10.0447 12.1776C10.0753 12.1779 10.1001 12.1778 10.1183 12.1774C10.1283 12.1772 10.1338 12.1769 10.1358 12.1768C10.2487 12.1614 10.3588 12.2221 10.4031 12.3254L10.6946 13.0056C10.7384 13.1079 10.7065 13.226 10.6167 13.294C10.618 13.293 10.6163 13.2946 10.6113 13.2994C10.6023 13.308 10.5827 13.3268 10.5505 13.359C10.5076 13.4019 10.4542 13.4566 10.4003 13.5124C10.3749 13.5388 10.3496 13.5651 10.3255 13.5902L10.585 13.843C10.6115 13.8191 10.639 13.794 10.6665 13.7688C10.724 13.7162 10.7794 13.6645 10.8221 13.623C10.8436 13.6021 10.8603 13.5853 10.8719 13.573C10.8759 13.5688 10.8786 13.5658 10.8802 13.564C10.9474 13.4692 11.0742 13.4321 11.1846 13.477L11.8831 13.761C11.9942 13.8061 12.0561 13.9209 12.0334 14.0343C12.0333 14.0366 12.033 14.0401 12.0328 14.0447C12.032 14.0608 12.0315 14.0837 12.0314 14.1129C12.0312 14.171 12.0327 14.2451 12.0349 14.3213C12.036 14.3578 12.0372 14.3939 12.0385 14.4282H12.3977C12.3989 14.3929 12.4 14.3566 12.4011 14.3213C12.4033 14.2445 12.4052 14.1693 12.4057 14.11C12.406 14.0802 12.4059 14.056 12.4055 14.0383C12.4053 14.0285 12.405 14.0232 12.4049 14.0213C12.3891 13.9113 12.4514 13.8041 12.5574 13.761L13.2559 13.477C13.3628 13.4336 13.486 13.4667 13.5549 13.5566C13.5549 13.5566 13.5595 13.5618 13.5681 13.5706C13.5809 13.5838 13.5985 13.6013 13.6204 13.6224C13.664 13.6645 13.7197 13.7166 13.7769 13.7694C13.8037 13.7942 13.8306 13.8188 13.8563 13.8422L14.1167 13.5886C14.0924 13.5628 14.0669 13.5358 14.0413 13.509C13.988 13.4531 13.9357 13.3991 13.8937 13.3576C13.8726 13.3367 13.8556 13.3205 13.8433 13.3094C13.8394 13.3058 13.8365 13.3033 13.8346 13.3017C13.7378 13.2362 13.6999 13.113 13.7459 13.0056L14.0375 12.3254C14.0838 12.2172 14.2017 12.1568 14.3181 12.1789C14.3205 12.1791 14.324 12.1793 14.3288 12.1796C14.3453 12.1803 14.3688 12.1808 14.3989 12.1809C14.4585 12.1811 14.5346 12.1797 14.6128 12.1775C14.6502 12.1765 14.6873 12.1752 14.7226 12.174V11.8182C14.6863 11.8171 14.649 11.816 14.6128 11.815C14.5339 11.8128 14.4568 11.811 14.3958 11.8104C14.3652 11.8102 14.3404 11.8102 14.3223 11.8106C14.3122 11.8109 14.3067 11.8112 14.3048 11.8113C14.1918 11.8266 14.0817 11.7659 14.0375 11.6627L13.7459 10.9824C13.7021 10.8802 13.734 10.7621 13.8238 10.6941C13.8225 10.695 13.8242 10.6934 13.8293 10.6886C13.8382 10.68 13.8578 10.6613 13.89 10.629C13.9329 10.5861 13.9863 10.5314 14.0402 10.4756C14.0656 10.4493 14.0909 10.4229 14.115 10.3978L13.8555 10.145C13.8291 10.1689 13.8015 10.194 13.774 10.2192C13.7166 10.2719 13.6611 10.3236 13.6184 10.3651C13.5969 10.386 13.5802 10.4028 13.5687 10.415C13.5647 10.4192 13.562 10.4222 13.5603 10.4241C13.4931 10.5188 13.3663 10.5559 13.2559 10.511L12.5574 10.2271C12.4464 10.1819 12.3844 10.0672 12.4071 9.95373C12.4073 9.95139 12.4075 9.94798 12.4077 9.94336C12.4085 9.92728 12.409 9.90435 12.4091 9.8751C12.4093 9.81705 12.4079 9.74291 12.4056 9.66669C12.4045 9.63026 12.4033 9.59414 12.402 9.55983H12.0428Z" fill="#496EC5"/>
<path fill-rule="evenodd" clip-rule="evenodd" d="M11.3043 11.0988C11.8097 10.6066 12.6313 10.6066 13.1366 11.0988C13.6427 11.5917 13.6408 12.3851 13.1379 12.8822L13.1366 12.8834C12.6313 13.3756 11.8097 13.3756 11.3043 12.8834C10.799 12.3912 10.799 11.591 11.3043 11.0988ZM12.7802 11.446C12.4717 11.1455 11.9693 11.1455 11.6608 11.446C11.3523 11.7465 11.3523 12.2358 11.6608 12.5363C11.969 12.8365 12.471 12.8367 12.7795 12.5369C13.0898 12.2295 13.0877 11.7455 12.7802 11.446Z" fill="#496EC5"/>
<path fill-rule="evenodd" clip-rule="evenodd" d="M10.4816 3.49408C9.92868 4.16094 9.43989 5.13317 9.06293 6.33361C8.75222 7.3288 8.51239 8.47807 8.38638 9.72268C8.31422 10.4549 8.27217 11.216 8.27217 12C8.27217 12.7854 8.30828 13.5459 8.38621 14.2757L8.38628 14.2764L8.38635 14.277C8.51242 15.5225 8.74629 16.6656 9.0627 17.6657L9.06281 17.666C9.43978 18.8636 9.92861 19.8361 10.4817 20.5038C11.0362 21.1731 11.6303 21.509 12.223 21.509C12.816 21.509 13.4102 21.1743 13.9644 20.5059C14.5173 19.8391 15.0061 18.8669 15.383 17.6665C15.6938 16.6652 15.9336 15.5159 16.0596 14.2715C16.1318 13.5392 16.1738 12.7781 16.1738 11.9941C16.1738 11.2087 16.1377 10.4482 16.0598 9.71838L16.0598 9.71821C15.9275 8.47125 15.6996 7.32233 15.3835 6.32321C15.2513 5.91344 15.1145 5.53158 14.9611 5.18114L15.4248 4.98863C15.5872 5.35969 15.7297 5.75847 15.8646 6.17662L15.8648 6.17727L15.8651 6.17793C16.1927 7.21355 16.4262 8.39506 16.5612 9.66777C16.6412 10.4167 16.6779 11.1942 16.6779 11.9941C16.6779 12.7953 16.635 13.5721 16.5614 14.3186L16.5613 14.3193C16.4322 15.5945 16.1862 16.7756 15.8654 17.809L15.8652 17.8097C15.4769 19.0463 14.9636 20.0823 14.3565 20.8144C13.7507 21.545 13.0269 22 12.223 22C11.4188 22 10.695 21.5432 10.0894 20.8121C9.48243 20.0793 8.96913 19.0435 8.58084 17.8099C8.25356 16.7754 8.01376 15.6 7.88475 14.3258C7.80481 13.577 7.76807 12.7997 7.76807 12C7.76807 11.1988 7.81104 10.4219 7.88462 9.67545L7.88468 9.67482C8.01376 8.39964 8.25979 7.21839 8.58068 6.19063L8.58079 6.19026C8.96908 4.95366 9.48241 3.91769 10.0895 3.1856C10.6953 2.45498 11.4191 2 12.223 2C12.6131 2 12.9829 2.10892 13.3297 2.29728L13.0841 2.72608C12.7993 2.57135 12.5132 2.49098 12.223 2.49098C11.63 2.49098 11.0359 2.8257 10.4816 3.49408Z" fill="#5281EE"/>
<path fill-rule="evenodd" clip-rule="evenodd" d="M15.1053 3.64729C15.1053 3.26073 14.7859 2.95381 14.4006 2.95813L14.3992 2.95814H14.3977C14.0085 2.95814 13.6901 3.26823 13.6901 3.64729C13.6901 4.02635 14.0085 4.33643 14.3977 4.33643C14.7869 4.33643 15.1053 4.02635 15.1053 3.64729ZM14.3963 2.46717C15.067 2.46043 15.6094 2.9932 15.6094 3.64729C15.6094 4.29751 15.0653 4.82741 14.3977 4.82741C13.7301 4.82741 13.186 4.29751 13.186 3.64729C13.186 2.99754 13.7293 2.46793 14.3963 2.46717Z" fill="#FFDD7A"/>
<path fill-rule="evenodd" clip-rule="evenodd" d="M19.0096 6.30463C18.1396 6.1721 17.0308 6.24635 15.7744 6.52893C14.7286 6.76759 13.5904 7.14077 12.4202 7.65506C11.7347 7.95962 11.0376 8.30501 10.3407 8.69703C9.64381 9.08905 8.98876 9.50461 8.37553 9.93205C7.33121 10.6628 6.427 11.4388 5.69841 12.2007C5.3994 12.5153 5.13182 12.8224 4.89497 13.128L4.4926 12.8323C4.74157 12.511 5.02052 12.1911 5.32876 11.8669L5.32926 11.8664C6.08255 11.0786 7.01241 10.2813 8.08152 9.53322L8.08188 9.53297C8.70759 9.09682 9.37647 8.67245 10.0886 8.27187C10.8006 7.87131 11.5123 7.51875 12.2115 7.20816L12.2119 7.20795L12.2124 7.20775C13.4106 6.68109 14.58 6.2972 15.6597 6.05082L15.6605 6.05064C16.9548 5.75951 18.1325 5.67407 19.0875 5.81955C20.0407 5.96475 20.8078 6.34715 21.2129 7.02394L21.2131 7.02434L21.2134 7.02474C21.6156 7.70257 21.5714 8.54182 21.2234 9.41884C20.8747 10.2978 20.2087 11.2498 19.3027 12.1953L19.3022 12.1958C18.5429 12.9834 17.6136 13.7742 16.5519 14.5273L16.5511 14.5279L16.5502 14.5285C15.9245 14.9646 15.2557 15.389 14.5436 15.7896C13.8315 16.1902 13.1198 16.5427 12.4207 16.8533L12.4202 16.8535L12.4197 16.8537C11.2224 17.38 10.0526 17.7702 8.97122 18.0109C7.67707 18.302 6.49798 18.3874 5.54236 18.2419C4.58895 18.0968 3.82121 17.7146 3.41904 17.0372C3.22317 16.71 3.13652 16.3417 3.12988 15.9538L3.63392 15.9456C3.63942 16.2674 3.71062 16.5496 3.8547 16.7902L3.85496 16.7906L3.85522 16.7911C4.15159 17.2906 4.74722 17.624 5.62019 17.7568C6.49109 17.8894 7.60159 17.8151 8.85817 17.5324L8.85872 17.5323C9.90291 17.2999 11.0408 16.9211 12.212 16.4064C12.8974 16.1018 13.5946 15.7565 14.2914 15.3644C14.9881 14.9726 15.6429 14.5571 16.256 14.1299C17.2954 13.3925 18.1999 12.6219 18.9345 11.8599C19.8139 10.9422 20.4354 10.0427 20.7532 9.24186C21.0717 8.43906 21.0732 7.76998 20.7771 7.27068C20.4775 6.77059 19.8812 6.43741 19.0096 6.30463Z" fill="#5281EE"/>
<path fill-rule="evenodd" clip-rule="evenodd" d="M4.32697 13.9783C4.13563 13.6489 3.70242 13.5341 3.36075 13.7268C3.01828 13.9199 2.90417 14.3434 3.0996 14.6678L3.1006 14.6695L3.10157 14.6712C3.29291 15.0006 3.72613 15.1154 4.06779 14.9227L4.06887 14.9221L4.06996 14.9215C4.40815 14.7351 4.52602 14.3132 4.32821 13.9804L4.32759 13.9794L4.32697 13.9783ZM4.7651 13.7355C4.43381 13.1665 3.68933 12.9742 3.10818 13.3019C2.52805 13.629 2.32616 14.352 2.6638 14.9146C2.99506 15.4827 3.7385 15.675 4.31928 15.3482C4.90307 15.0258 5.10069 14.3014 4.7651 13.7355Z" fill="#FFDD7A"/>
<path fill-rule="evenodd" clip-rule="evenodd" d="M5.52716 6.26435C4.65533 6.39657 4.06177 6.72863 3.7686 7.22458L3.7682 7.22526L3.76819 7.22526C3.4689 7.72785 3.46921 8.39709 3.78683 9.19871C4.10383 9.99877 4.72537 10.8968 5.60507 11.8148L5.60549 11.8152L5.60591 11.8157C6.33376 12.5827 7.23763 13.3528 8.28263 14.0839C8.89586 14.5114 9.55091 14.9269 10.2478 15.319C10.9459 15.7117 11.6427 16.0626 12.3261 16.3604L12.3268 16.3607C13.498 16.8755 14.636 17.2543 15.6802 17.4868C16.1061 17.5802 16.5162 17.6553 16.9058 17.7013L16.8452 18.1887C16.4332 18.1401 16.0053 18.0614 15.5689 17.9656L15.5682 17.9655C14.4869 17.7248 13.3171 17.3346 12.1198 16.8084C11.4186 16.5029 10.7065 16.144 9.99566 15.7441C9.28357 15.3435 8.61469 14.9192 7.98899 14.483L7.98862 14.4828C6.92028 13.7353 5.99012 12.9439 5.23612 12.1494C4.33043 11.2042 3.66453 10.2538 3.31653 9.37548C2.96915 8.49874 2.92691 7.65968 3.33193 6.97925C3.7312 6.30417 4.49801 5.92353 5.4496 5.77922C6.40365 5.63454 7.58121 5.71992 8.87245 6.01104C9.95366 6.25177 11.1233 6.64188 12.3204 7.16803C13.0216 7.47357 13.7337 7.83242 14.4446 8.23231C15.1567 8.63289 15.8256 9.05726 16.4513 9.49341L16.4516 9.49366C17.52 10.2412 18.4502 11.0326 19.2042 11.8271C20.1099 12.7723 20.7757 13.7226 21.1244 14.6008C21.4725 15.4774 21.5164 16.3163 21.1147 16.9967L21.1143 16.9974L21.1139 16.998C20.9191 17.3233 20.6367 17.5824 20.2951 17.778L20.0396 17.3548C20.3173 17.1957 20.5328 16.9936 20.6781 16.7512C20.9744 16.2487 20.9725 15.5794 20.6543 14.7779C20.3365 13.9777 19.7149 13.0796 18.8352 12.1616L18.8348 12.1612L18.8343 12.1608C18.1065 11.3938 17.2027 10.6238 16.1578 9.89261C15.5445 9.46512 14.8894 9.04953 14.1925 8.65747C13.4944 8.26477 12.7976 7.91382 12.1142 7.61603L12.1134 7.6157C10.9421 7.10088 9.80406 6.72207 8.75975 6.48959L8.75907 6.48944C7.50562 6.20681 6.3966 6.1325 5.52716 6.26435Z" fill="#5281EE"/>
<path fill-rule="evenodd" clip-rule="evenodd" d="M18.9044 17.3936C18.5713 17.2033 18.1365 17.3144 17.9382 17.648L17.9379 17.6486L17.9375 17.6492C17.7421 17.9736 17.8562 18.3971 18.1986 18.5902C18.5403 18.7829 18.9735 18.6681 19.1649 18.3387L19.1658 18.337L19.1668 18.3354C19.3623 18.0109 19.2482 17.5874 18.9057 17.3943L18.9051 17.394L18.9044 17.3936ZM19.1589 16.9698C18.5813 16.6402 17.8386 16.8365 17.5023 17.4014C17.1638 17.9641 17.3656 18.6878 17.9461 19.0152C18.527 19.3427 19.2712 19.1506 19.6026 18.5822C19.9402 18.0197 19.7385 17.2971 19.1589 16.9698Z" fill="#FFDD7A"/>
</svg>
