<svg width="36" height="36" viewBox="0 0 36 36" fill="none" xmlns="http://www.w3.org/2000/svg">
<rect width="36" height="36" rx="8" fill="white"/>
<path d="M26.3328 15.7333C26.2995 20.575 18.7495 25.1917 18.4328 25.3833C18.2995 25.4667 18.1495 25.5 17.9995 25.5C17.8495 25.5 17.6995 25.4667 17.5745 25.3833C17.2495 25.1917 9.63279 20.575 9.66612 15.725C9.68279 12.8417 11.7911 10.5 14.3578 10.5C15.7995 10.5 17.1245 11.2333 17.9995 12.425C18.8745 11.2333 20.1995 10.5 21.6411 10.5C22.8078 10.5 23.9328 10.9833 24.7995 11.8583C25.7828 12.85 26.3411 14.2583 26.3328 15.7333Z" fill="#282B30"/>
<path d="M17.4181 20.4264C17.2014 20.4264 16.9931 20.3431 16.8264 20.1848L14.9098 18.2681C14.5848 17.9431 14.5848 17.4181 14.9098 17.0931C15.2348 16.7681 15.7598 16.7681 16.0848 17.0931L17.4181 18.4264L20.9348 14.9098C21.2598 14.5848 21.7848 14.5848 22.1098 14.9098C22.4348 15.2348 22.4348 15.7598 22.1098 16.0848L18.0014 20.1931C17.8348 20.3598 17.6264 20.4348 17.4098 20.4348L17.4181 20.4264Z" fill="#FB813E"/>
</svg>
