<svg width="44" height="44" viewBox="0 0 44 44" fill="none" xmlns="http://www.w3.org/2000/svg">
<rect x="0.5" y="0.5" width="43" height="43" rx="7.5" fill="white"/>
<rect x="0.5" y="0.5" width="43" height="43" rx="7.5" stroke="#E1D5B8"/>
<path fill-rule="evenodd" clip-rule="evenodd" d="M29 21C29.6075 21 30.2008 21.1845 30.7012 21.529C31.2016 21.8736 31.5856 22.362 31.8024 22.9295C32.0192 23.4971 32.0586 24.1171 31.9153 24.7075C31.772 25.2979 31.4528 25.8309 31 26.236V31.191C31 31.2763 30.9782 31.3601 30.9366 31.4346C30.8951 31.509 30.8352 31.5716 30.7627 31.6164C30.6901 31.6612 30.6073 31.6867 30.5221 31.6905C30.4369 31.6943 30.3522 31.6762 30.276 31.638L29 31L27.724 31.638C27.6478 31.6762 27.563 31.6943 27.4778 31.6905C27.3927 31.6867 27.3099 31.6612 27.2373 31.6164C27.1648 31.5716 27.1049 31.509 27.0633 31.4346C27.0218 31.3601 27 31.2763 27 31.191V26.236C26.5472 25.8309 26.228 25.2979 26.0847 24.7075C25.9414 24.1171 25.9808 23.4971 26.1975 22.9295C26.4143 22.362 26.7984 21.8736 27.2988 21.529C27.7992 21.1845 28.3924 21 29 21Z" fill="#FB813E"/>
<path fill-rule="evenodd" clip-rule="evenodd" d="M30 14C30.5304 14 31.0391 14.2107 31.4142 14.5858C31.7893 14.9609 32 15.4696 32 16V20C31.0371 19.2779 29.8461 18.9273 28.6456 19.0126C27.445 19.0979 26.3155 19.6134 25.4645 20.4645C24.6134 21.3155 24.0979 22.445 24.0126 23.6456C23.9273 24.8461 24.2779 26.0371 25 27V30H14C13.4696 30 12.9609 29.7893 12.5858 29.4142C12.2107 29.0391 12 28.5304 12 28V16C12 15.4696 12.2107 14.9609 12.5858 14.5858C12.9609 14.2107 13.4696 14 14 14H30ZM18 23H16C15.7348 23 15.4804 23.1054 15.2929 23.2929C15.1054 23.4804 15 23.7348 15 24C15 24.2652 15.1054 24.5196 15.2929 24.7071C15.4804 24.8946 15.7348 25 16 25H18C18.2652 25 18.5196 24.8946 18.7071 24.7071C18.8946 24.5196 19 24.2652 19 24C19 23.7348 18.8946 23.4804 18.7071 23.2929C18.5196 23.1054 18.2652 23 18 23ZM22 19H16C15.7451 19.0003 15.5 19.0979 15.3146 19.2728C15.1293 19.4478 15.0178 19.687 15.0028 19.9414C14.9879 20.1958 15.0707 20.4464 15.2343 20.6418C15.3979 20.8373 15.6299 20.9629 15.883 20.993L16 21H22C22.2549 20.9997 22.5 20.9021 22.6854 20.7272C22.8707 20.5522 22.9822 20.313 22.9972 20.0586C23.0121 19.8042 22.9293 19.5536 22.7657 19.3582C22.6021 19.1627 22.3701 19.0371 22.117 19.007L22 19Z" fill="black"/>
</svg>
