<svg width="92" height="24" viewBox="0 0 92 24" fill="none" xmlns="http://www.w3.org/2000/svg">
<g clip-path="url(#clip0_5730_12250)">
<path d="M40.0429 17.25H41.0185L39.0809 22.8446H38.1045L40.0429 17.25Z" fill="white"/>
<path d="M41.1946 22.7083H41.4941C41.8268 22.7083 41.9996 22.5265 41.9996 22.1793V18.7193H42.9284V22.253C42.9284 23.0419 42.3963 23.5971 41.6388 23.5971H41.1938V22.7075L41.1946 22.7083ZM42.0025 17.3398H42.9277V18.2415H42.0025V17.3398Z" fill="white"/>
<path d="M43.9126 20.5114C43.9126 19.4234 44.7061 18.6172 45.7703 18.6172C46.8346 18.6172 47.6281 19.4249 47.6281 20.5114C47.6281 21.5978 46.8295 22.4055 45.7703 22.4055C44.7111 22.4055 43.9126 21.5926 43.9126 20.5114ZM46.6862 20.5114C46.6862 19.9306 46.306 19.5286 45.7703 19.5286C45.2346 19.5286 44.8544 19.9306 44.8544 20.5114C44.8544 21.0922 45.2346 21.4941 45.7703 21.4941C46.306 21.4941 46.6862 21.0922 46.6862 20.5114Z" fill="white"/>
<path d="M52.2901 20.5116C52.2901 21.5973 51.5311 22.4058 50.4835 22.4058C50.0658 22.4058 49.695 22.2585 49.4077 22.0045L49.2975 22.3043H48.6113V17.4258H49.5402V18.912C49.8059 18.7234 50.1278 18.6167 50.4835 18.6167C51.5311 18.6167 52.2901 19.4244 52.2901 20.5109V20.5116ZM50.4079 21.4891C50.9479 21.4891 51.3432 21.0699 51.3432 20.5116C51.3432 19.9533 50.9472 19.5288 50.4079 19.5288C49.8685 19.5288 49.4711 19.9496 49.4711 20.5116C49.4711 21.0736 49.8678 21.4891 50.4079 21.4891Z" fill="white"/>
<path d="M53.2207 19.9727H55.2966V20.9058H53.2207V19.9727Z" fill="white"/>
<path d="M60.1299 20.5116C60.1299 21.5973 59.371 22.4058 58.3233 22.4058C57.9057 22.4058 57.5348 22.2585 57.2475 22.0045L57.1374 22.3043H56.4512V17.4258H57.38V18.912C57.6457 18.7234 57.9676 18.6167 58.3233 18.6167C59.371 18.6167 60.1299 19.4244 60.1299 20.5109V20.5116ZM58.2477 21.4891C58.7877 21.4891 59.183 21.0699 59.183 20.5116C59.183 19.9533 58.787 19.5288 58.2477 19.5288C57.7084 19.5288 57.3109 19.9496 57.3109 20.5116C57.3109 21.0736 57.7077 21.4891 58.2477 21.4891Z" fill="white"/>
<path d="M60.8896 20.5114C60.8896 19.4234 61.6831 18.6172 62.7474 18.6172C63.8116 18.6172 64.6051 19.4249 64.6051 20.5114C64.6051 21.5978 63.8066 22.4055 62.7474 22.4055C61.6882 22.4055 60.8896 21.5926 60.8896 20.5114ZM63.6633 20.5114C63.6633 19.9306 63.2831 19.5286 62.7474 19.5286C62.2117 19.5286 61.8315 19.9306 61.8315 20.5114C61.8315 21.0922 62.2117 21.4941 62.7474 21.4941C63.2831 21.4941 63.6633 21.0922 63.6633 20.5114Z" fill="white"/>
<path d="M65.3633 20.5114C65.3633 19.4234 66.1568 18.6172 67.221 18.6172C68.2852 18.6172 69.0787 19.4249 69.0787 20.5114C69.0787 21.5978 68.2802 22.4055 67.221 22.4055C66.1618 22.4055 65.3633 21.5926 65.3633 20.5114ZM68.1369 20.5114C68.1369 19.9306 67.7567 19.5286 67.221 19.5286C66.6853 19.5286 66.3051 19.9306 66.3051 20.5114C66.3051 21.0922 66.6853 21.4941 67.221 21.4941C67.7567 21.4941 68.1369 21.0922 68.1369 20.5114Z" fill="white"/>
<path d="M72.114 21.4396V22.3029H71.4537C70.6977 22.3029 70.2332 21.8183 70.2332 21.0226V19.4966H69.6118V19.287L70.9691 17.7812H71.147V18.7167H72.0953V19.4958H71.1628V20.8934C71.1628 21.2397 71.3536 21.4389 71.692 21.4389H72.1147L72.114 21.4396Z" fill="white"/>
<path d="M74.6332 22.4063C73.5992 22.4063 72.8086 21.5753 72.8086 20.5008C72.8086 19.4264 73.5942 18.6172 74.6382 18.6172C75.5282 18.6172 76.2188 19.2055 76.3858 20.0883H75.4634C75.3129 19.736 75.0033 19.5286 74.6332 19.5286C74.1292 19.5286 73.7504 19.9508 73.7504 20.5061C73.7504 21.0614 74.1356 21.4941 74.6332 21.4941C75.0083 21.4941 75.3057 21.2762 75.462 20.893H76.3973C76.2353 21.7947 75.5318 22.4055 74.6332 22.4055V22.4063Z" fill="white"/>
<path d="M80.8281 18.7134V22.2988H80.0994L80.0195 21.978C79.7242 22.2477 79.339 22.4055 78.9055 22.4055C77.8715 22.4055 77.1025 21.5911 77.1025 20.5061C77.1025 19.4211 77.8715 18.6172 78.9055 18.6172C79.3469 18.6172 79.7372 18.7795 80.0346 19.056L80.1339 18.7134H80.8274H80.8281ZM79.9172 20.5061C79.9172 19.9426 79.5212 19.5233 78.9819 19.5233C78.4425 19.5233 78.0451 19.9441 78.0451 20.5061C78.0451 21.0681 78.4418 21.4889 78.9819 21.4889C79.5219 21.4889 79.9172 21.0696 79.9172 20.5061Z" fill="white"/>
<path d="M87.1579 20.0559V22.3047H86.229V20.2159C86.229 19.7373 86.049 19.4849 85.7128 19.4849C85.298 19.4849 85.0525 19.8034 85.0525 20.3647V22.3039H84.1466V20.2152C84.1466 19.7366 83.9717 19.4841 83.639 19.4841C83.2192 19.4841 82.9679 19.8027 82.9679 20.3639V22.3032H82.0391V18.7177H82.6878L82.8621 19.1625C83.1062 18.8417 83.4828 18.6328 83.8874 18.6328C84.3245 18.6328 84.686 18.8462 84.8847 19.2068C85.1194 18.8582 85.5111 18.6328 85.9482 18.6328C86.6589 18.6328 87.1586 19.2151 87.1586 20.0551L87.1579 20.0559Z" fill="white"/>
<path d="M90.199 18.6172C91.2337 18.6172 91.9991 19.4249 91.9991 20.5114C91.9991 21.5978 91.2337 22.4115 90.199 22.4115C89.8433 22.4115 89.52 22.3018 89.2536 22.1095V23.5972H88.3247V18.7186H88.9389L89.0973 19.0447C89.3889 18.775 89.7698 18.6172 90.199 18.6172ZM91.0587 20.5114C91.0587 19.9478 90.6627 19.5286 90.1234 19.5286C89.5841 19.5286 89.1866 19.9493 89.1866 20.5114C89.1866 21.0734 89.5834 21.4941 90.1234 21.4941C90.6634 21.4941 91.0587 21.0749 91.0587 20.5114Z" fill="white"/>
<path d="M23.6612 12.1466C21.8769 12.1466 20.5239 10.7356 20.5239 8.88799C20.5239 7.0404 21.8762 5.64062 23.6612 5.64062C25.1466 5.64062 26.2994 6.58132 26.6321 8.00439H25.4123C25.102 7.29286 24.4367 6.85707 23.6612 6.85707C22.5861 6.85707 21.7768 7.74067 21.7768 8.88799C21.7768 10.0353 22.5969 10.9302 23.6612 10.9302C24.4482 10.9302 25.0797 10.4944 25.4015 9.73702H26.6429C26.3218 11.1826 25.1351 12.1466 23.6612 12.1466Z" fill="white"/>
<path d="M30.6224 12.1466C28.7827 12.1466 27.4189 10.7581 27.4189 8.88799C27.4189 7.01786 28.782 5.64062 30.6224 5.64062C32.4629 5.64062 33.8151 7.02913 33.8151 8.88799C33.8151 10.7468 32.4521 12.1466 30.6224 12.1466ZM30.6224 10.9302C31.7529 10.9302 32.5623 10.0811 32.5623 8.88799C32.5623 7.69483 31.7529 6.85707 30.6224 6.85707C29.492 6.85707 28.6718 7.7061 28.6718 8.88799C28.6718 10.0699 29.4812 10.9302 30.6224 10.9302Z" fill="white"/>
<path d="M39.7817 3.57812H41.0123V12.0001H40.0813L39.9149 11.2885C39.3828 11.828 38.6404 12.1489 37.8088 12.1489C35.9907 12.1489 34.6938 10.7491 34.6938 8.90149C34.6938 7.0539 35.9907 5.64285 37.8088 5.64285C38.5735 5.64285 39.2496 5.90658 39.7817 6.36566V3.57812ZM37.8973 10.9332C39.0278 10.9332 39.8595 10.0496 39.8595 8.89097C39.8595 7.73238 39.0285 6.86005 37.8973 6.86005C36.7661 6.86005 35.9467 7.73238 35.9467 8.89097C35.9467 10.0496 36.7784 10.9332 37.8973 10.9332Z" fill="white"/>
<path d="M42.7461 4.83891V3.51953H44.0098V4.83891H42.7461ZM42.7684 11.9873V5.79088H43.999V11.9866H42.7684V11.9873Z" fill="white"/>
<path d="M48.9037 5.65234C50.3114 5.65234 51.187 6.73054 51.187 8.2573V11.9863H49.9564V8.52102C49.9564 7.39624 49.4798 6.79966 48.5819 6.79966C47.64 6.79966 46.9747 7.57957 46.9747 8.66979V11.9855H45.7441V5.78984H46.5974L46.8415 6.66217C47.2851 6.03103 48.0274 5.65234 48.903 5.65234H48.9037Z" fill="white"/>
<path d="M57.7455 5.7933H58.5549V11.1858C58.5549 13.1596 57.4244 14.364 55.5732 14.364C54.0322 14.364 52.9464 13.5375 52.6469 12.1843H53.8659C54.0985 12.8613 54.8085 13.24 55.5616 13.24C56.5927 13.24 57.3574 12.5285 57.3574 11.3586V11.0716C56.8361 11.5419 56.1492 11.8177 55.373 11.8177C53.6996 11.8177 52.4136 10.475 52.4136 8.7311C52.4136 6.98721 53.6996 5.64453 55.373 5.64453C56.2486 5.64453 57.014 6.01194 57.5569 6.59725L57.7455 5.79405V5.7933ZM55.5062 10.635C56.5704 10.635 57.3459 9.83184 57.3459 8.73035C57.3459 7.62886 56.5812 6.83693 55.5062 6.83693C54.4312 6.83693 53.6657 7.65141 53.6657 8.73035C53.6657 9.8093 54.442 10.635 55.5062 10.635Z" fill="white"/>
<path d="M63.264 5.67578C64.7048 5.67578 65.6027 6.74271 65.6027 8.31455V11.9864H65.0598V8.4295C65.0598 7.01846 64.3505 6.19196 63.1423 6.19196C61.934 6.19196 61.0253 7.21306 61.0253 8.45204V11.9857H60.4824V5.79074H60.8813L60.9922 7.05302C61.4242 6.21526 62.2782 5.67578 63.2647 5.67578H63.264Z" fill="white"/>
<path d="M67.5049 4.51849V3.72656H68.1925V4.51849H67.5049ZM67.5826 11.9877V5.79204H68.1256V11.9877H67.5826Z" fill="white"/>
<path d="M72.9954 5.67578C74.4362 5.67578 75.3341 6.74271 75.3341 8.31455V11.9864H74.7912V8.4295C74.7912 7.01846 74.082 6.19196 72.8737 6.19196C71.6655 6.19196 70.7568 7.21306 70.7568 8.45204V11.9857H70.2139V5.79074H70.6128L70.7237 7.05302C71.1557 6.21526 72.0097 5.67578 72.9961 5.67578H72.9954Z" fill="white"/>
<path d="M77.3804 4.51849V3.72656H78.0565V4.51849H77.3804ZM75.8064 14.1907V13.6745H76.0613C76.9369 13.6745 77.4466 13.1471 77.4466 12.2402V5.79204H77.9896V12.2747C77.9896 13.4454 77.258 14.1907 76.1275 14.1907H75.8057H75.8064Z" fill="white"/>
<path d="M85.3062 5.79074H85.7497V11.9864H85.2954L85.2291 10.6438C84.7086 11.5386 83.7768 12.1127 82.624 12.1127C80.8728 12.1127 79.5537 10.7241 79.5537 8.88858C79.5537 7.05302 80.8728 5.67578 82.624 5.67578C83.7768 5.67578 84.7078 6.24982 85.2291 7.14468L85.3069 5.79074H85.3062ZM82.6571 11.5739C84.1311 11.5739 85.2068 10.4379 85.2068 8.88933C85.2068 7.34079 84.1318 6.21601 82.6571 6.21601C81.1825 6.21601 80.1074 7.3746 80.1074 8.88933C80.1074 10.4041 81.2048 11.5739 82.6571 11.5739Z" fill="white"/>
<path d="M89.6196 12.1127C88.2451 12.1127 87.3803 11.4011 87.3032 10.2425H87.8353C87.9131 11.1028 88.6 11.5965 89.6311 11.5965C90.6623 11.5965 91.3715 11.1028 91.3715 10.3229C91.3715 9.35893 90.4736 9.18687 89.5426 9.02608C88.5115 8.84275 87.4141 8.63613 87.4141 7.36258C87.4141 6.35275 88.2897 5.67578 89.5865 5.67578C90.8833 5.67578 91.715 6.36402 91.7589 7.46551H91.2376C91.1937 6.65104 90.5838 6.18069 89.575 6.18069C88.5662 6.18069 87.9455 6.65104 87.9455 7.35131C87.9455 8.18907 88.7548 8.32657 89.6744 8.48736C90.7163 8.67069 91.9137 8.87731 91.9137 10.3004C91.9137 11.4019 90.9935 12.1134 89.6189 12.1134L89.6196 12.1127Z" fill="white"/>
<path d="M7.96663 17.3024C12.3665 17.3024 15.9333 13.5358 15.9333 8.8895C15.9333 4.24316 12.3665 0.476562 7.96663 0.476562C3.56678 0.476562 0 4.24316 0 8.8895C0 13.5358 3.56678 17.3024 7.96663 17.3024Z" fill="white"/>
<path d="M2.88878 8.91733C2.86502 9.77538 3.00831 10.6334 3.27113 11.4659C3.51019 12.173 3.96454 12.7785 4.56218 13.2076C5.25559 13.6621 6.05124 13.8387 6.88074 13.8387H11.9729V11.3081H6.87282C5.62785 11.3081 5.02877 10.4148 5.02877 8.92334V8.92484C5.02877 7.4334 5.62713 6.54304 6.87282 6.54304H11.9729V4.01172H6.88074C6.07572 4.01172 5.25487 4.18829 4.56218 4.64286C3.96454 5.07188 3.51019 5.67748 3.27113 6.3845C3.00831 7.21701 2.86502 8.07506 2.88878 8.9331" fill="url(#paint0_linear_5730_12250)"/>
<path fill-rule="evenodd" clip-rule="evenodd" d="M5.98242 8.39844L8.37299 8.88081C8.37299 8.88081 6.61967 10.805 5.98242 8.39844Z" fill="#414141"/>
<path fill-rule="evenodd" clip-rule="evenodd" d="M11.5883 8.40625L9.27051 8.91417C9.27051 8.91417 11.278 10.8181 11.5883 8.40625Z" fill="#414141"/>
</g>
<defs>
<linearGradient id="paint0_linear_5730_12250" x1="2.8859" y1="8.92559" x2="11.9729" y2="8.92559" gradientUnits="userSpaceOnUse">
<stop stop-color="#F16222"/>
<stop offset="0.26" stop-color="#F37421"/>
<stop offset="0.71" stop-color="#F68D1E"/>
<stop offset="1" stop-color="#F7981D"/>
</linearGradient>
<clipPath id="clip0_5730_12250">
<rect width="92" height="23.1207" fill="white" transform="translate(0 0.476562)"/>
</clipPath>
</defs>
</svg>
