<svg width="28" height="28" viewBox="0 0 28 28" fill="none" xmlns="http://www.w3.org/2000/svg">
<path d="M5.8186 11.1196C5.8186 10.0151 6.71403 9.11963 7.8186 9.11963H10.7276C11.8322 9.11963 12.7276 10.0151 12.7276 11.1196V24.8333C12.7276 25.9378 11.8322 26.8333 10.7276 26.8333H7.8186C6.71403 26.8333 5.8186 25.9378 5.8186 24.8333V11.1196Z" fill="#55A1FF"/>
<path d="M15.6367 5.33569C15.6367 4.23112 16.5321 3.33569 17.6367 3.33569H20.5457C21.6503 3.33569 22.5457 4.23112 22.5457 5.33569V24.8334C22.5457 25.9379 21.6503 26.8334 20.5457 26.8334H17.6367C16.5321 26.8334 15.6367 25.9379 15.6367 24.8334V5.33569Z" fill="#FFC861"/>
<path d="M2.90905 22.8568C2.90905 23.6554 2.25784 24.3028 1.45452 24.3028C0.651213 24.3028 0 23.6554 0 22.8568C0 22.0582 0.651213 21.4108 1.45452 21.4108C2.25784 21.4108 2.90905 22.0582 2.90905 22.8568Z" fill="#FFF8CE"/>
<path fill-rule="evenodd" clip-rule="evenodd" d="M1.45452 23.5798C1.85618 23.5798 2.18179 23.2561 2.18179 22.8568C2.18179 22.4575 1.85618 22.1338 1.45452 22.1338C1.05287 22.1338 0.727262 22.4575 0.727262 22.8568C0.727262 23.2561 1.05287 23.5798 1.45452 23.5798ZM1.45452 24.3028C2.25784 24.3028 2.90905 23.6554 2.90905 22.8568C2.90905 22.0582 2.25784 21.4108 1.45452 21.4108C0.651213 21.4108 0 22.0582 0 22.8568C0 23.6554 0.651213 24.3028 1.45452 24.3028Z" fill="#FF7B61"/>
<path d="M9.45495 16.7113C9.45495 17.5099 8.80374 18.1573 8.00042 18.1573C7.19711 18.1573 6.5459 17.5099 6.5459 16.7113C6.5459 15.9127 7.19711 15.2653 8.00042 15.2653C8.80374 15.2653 9.45495 15.9127 9.45495 16.7113Z" fill="#FFF8CE"/>
<path fill-rule="evenodd" clip-rule="evenodd" d="M8.00042 17.4343C8.40208 17.4343 8.72769 17.1106 8.72769 16.7113C8.72769 16.312 8.40208 15.9883 8.00042 15.9883C7.59877 15.9883 7.27316 16.312 7.27316 16.7113C7.27316 17.1106 7.59877 17.4343 8.00042 17.4343ZM8.00042 18.1573C8.80374 18.1573 9.45495 17.5099 9.45495 16.7113C9.45495 15.9127 8.80374 15.2653 8.00042 15.2653C7.19711 15.2653 6.5459 15.9127 6.5459 16.7113C6.5459 17.5099 7.19711 18.1573 8.00042 18.1573Z" fill="#FF7B61"/>
<path d="M14.1827 22.1338C14.1827 22.9324 13.5315 23.5798 12.7282 23.5798C11.9249 23.5798 11.2737 22.9324 11.2737 22.1338C11.2737 21.3351 11.9249 20.6877 12.7282 20.6877C13.5315 20.6877 14.1827 21.3351 14.1827 22.1338Z" fill="#FFF8CE"/>
<path fill-rule="evenodd" clip-rule="evenodd" d="M12.7282 22.8568C13.1299 22.8568 13.4555 22.5331 13.4555 22.1338C13.4555 21.7345 13.1299 21.4107 12.7282 21.4107C12.3266 21.4107 12.0009 21.7345 12.0009 22.1338C12.0009 22.5331 12.3266 22.8568 12.7282 22.8568ZM12.7282 23.5798C13.5315 23.5798 14.1827 22.9324 14.1827 22.1338C14.1827 21.3351 13.5315 20.6877 12.7282 20.6877C11.9249 20.6877 11.2737 21.3351 11.2737 22.1338C11.2737 22.9324 11.9249 23.5798 12.7282 23.5798Z" fill="#FF7B61"/>
<path d="M19.2731 9.48117C19.2731 10.2798 18.6219 10.9272 17.8185 10.9272C17.0152 10.9272 16.364 10.2798 16.364 9.48117C16.364 8.68256 17.0152 8.03516 17.8185 8.03516C18.6219 8.03516 19.2731 8.68256 19.2731 9.48117Z" fill="#FFF8CE"/>
<path fill-rule="evenodd" clip-rule="evenodd" d="M17.8185 10.2042C18.2202 10.2042 18.5458 9.88047 18.5458 9.48117C18.5458 9.08186 18.2202 8.75816 17.8185 8.75816C17.4169 8.75816 17.0913 9.08186 17.0913 9.48117C17.0913 9.88047 17.4169 10.2042 17.8185 10.2042ZM17.8185 10.9272C18.6219 10.9272 19.2731 10.2798 19.2731 9.48117C19.2731 8.68256 18.6219 8.03516 17.8185 8.03516C17.0152 8.03516 16.364 8.68256 16.364 9.48117C16.364 10.2798 17.0152 10.9272 17.8185 10.9272Z" fill="#FF7B61"/>
<path d="M25.09 10.9271C25.09 11.7257 24.4387 12.3731 23.6354 12.3731C22.8321 12.3731 22.1809 11.7257 22.1809 10.9271C22.1809 10.1285 22.8321 9.48108 23.6354 9.48108C24.4387 9.48108 25.09 10.1285 25.09 10.9271Z" fill="#FFF8CE"/>
<path fill-rule="evenodd" clip-rule="evenodd" d="M23.6354 11.6501C24.0371 11.6501 24.3627 11.3264 24.3627 10.9271C24.3627 10.5278 24.0371 10.2041 23.6354 10.2041C23.2338 10.2041 22.9082 10.5278 22.9082 10.9271C22.9082 11.3264 23.2338 11.6501 23.6354 11.6501ZM23.6354 12.3731C24.4387 12.3731 25.09 11.7257 25.09 10.9271C25.09 10.1285 24.4387 9.48108 23.6354 9.48108C22.8321 9.48108 22.1809 10.1285 22.1809 10.9271C22.1809 11.7257 22.8321 12.3731 23.6354 12.3731Z" fill="#FF7B61"/>
<path d="M27.9999 2.61264C27.9999 3.41125 27.3487 4.05865 26.5453 4.05865C25.742 4.05865 25.0908 3.41125 25.0908 2.61264C25.0908 1.81403 25.742 1.16663 26.5453 1.16663C27.3487 1.16663 27.9999 1.81403 27.9999 2.61264Z" fill="#FFF8CE"/>
<path fill-rule="evenodd" clip-rule="evenodd" d="M26.5453 3.33564C26.947 3.33564 27.2726 3.01194 27.2726 2.61264C27.2726 2.21333 26.947 1.88963 26.5453 1.88963C26.1437 1.88963 25.8181 2.21333 25.8181 2.61264C25.8181 3.01194 26.1437 3.33564 26.5453 3.33564ZM26.5453 4.05865C27.3487 4.05865 27.9999 3.41125 27.9999 2.61264C27.9999 1.81403 27.3487 1.16663 26.5453 1.16663C25.742 1.16663 25.0908 1.81403 25.0908 2.61264C25.0908 3.41125 25.742 4.05865 26.5453 4.05865Z" fill="#FF7B61"/>
<path fill-rule="evenodd" clip-rule="evenodd" d="M26.6969 3.69676L24.5151 9.84231L23.4864 9.48136L25.6682 3.33582L26.6969 3.69676ZM22.4139 10.9109L18.7776 10.0071L19.0422 8.95502L22.6785 9.85878L22.4139 10.9109ZM17.9606 10.5892L13.597 21.2535L12.5865 20.8448L16.9501 10.1805L17.9606 10.5892ZM7.48427 17.4493L2.39343 22.6911L1.60864 21.9378L6.69948 16.696L7.48427 17.4493ZM11.5868 21.5828L8.31408 17.787L9.14235 17.0812L12.415 20.877L11.5868 21.5828Z" fill="#FF7B61"/>
</svg>
