<svg width="912" height="155" viewBox="0 0 912 155" fill="none" xmlns="http://www.w3.org/2000/svg">
<g clip-path="url(#clip0_7002_114729)">
<path d="M48.6734 8.94099C49.6223 7.44355 51.4297 5.03856 52.6497 3.63187C53.9149 2.1798 54.9993 1 55.0897 1C55.2252 1 55.18 2.49744 55.0445 4.31253C54.8638 6.08223 54.4571 9.53089 54.0956 11.8905C53.7341 14.2501 52.9208 18.0618 52.2882 20.2853C51.6556 22.5541 50.3452 26.0028 49.3512 27.9994C48.4023 29.996 47.0919 32.2194 45.3749 34.3522L44.7875 32.3102C44.426 31.0396 44.2001 27.954 44.2452 24.1423C44.2452 18.4248 44.3356 17.7895 45.5556 14.84C46.2786 13.1157 47.6793 10.4384 48.6734 8.94099Z" fill="#282B30"/>
<path d="M38.1453 28.68C38.3712 27.5456 38.6875 26.3204 38.823 25.9574C39.0038 25.4129 39.2297 25.5036 39.9527 26.4112C40.4497 27.0464 41.4438 28.7708 42.1667 30.2682C42.8897 31.7657 43.7934 34.5337 44.2001 36.3941C44.6519 38.5722 44.8778 41.5217 44.6519 49.2812L42.8897 47.693C41.8956 46.8309 40.6756 45.4242 40.1334 44.562C39.5912 43.6998 38.7778 41.8394 38.3712 40.4781C37.9645 39.026 37.6482 36.4395 37.6482 34.3522C37.6482 32.3556 37.8741 29.8144 38.1453 28.68Z" fill="#282B30"/>
<path d="M49.1704 32.764C49.9838 31.4026 51.7008 29.3153 53.0112 28.0901V28.1355C54.3215 26.9103 55.6771 25.9574 55.9934 25.9574C56.4452 25.9574 56.626 26.5927 56.626 28.0901C56.626 29.3153 56.3097 31.2665 55.903 32.5371C55.4512 33.7623 54.4119 35.9404 53.5534 37.3017C52.6949 38.663 51.1586 40.6596 50.1193 41.7486C49.1252 42.8377 47.7245 44.0175 45.7815 45.0158V43.2914C45.7815 42.3839 46.1882 40.1604 46.7304 38.4361C47.2727 36.7118 48.3571 34.1253 49.1704 32.764Z" fill="#282B30"/>
<path d="M49.6223 46.3771C50.6164 45.0158 52.1526 43.4276 53.0112 42.8377C53.8697 42.2478 54.7282 41.794 54.9541 41.794C55.1349 41.794 55.406 42.3385 55.5415 43.0646C55.7223 43.7452 55.7675 45.5149 55.6319 47.0124C55.5415 48.6913 54.9993 50.7333 54.2312 52.3669C53.5534 53.7735 52.0171 55.9063 50.7971 57.0861C49.6223 58.3113 47.9504 59.6726 45.6008 61.0793L45.8719 57.2222C46.0075 55.0895 46.5045 52.3669 47.0015 51.0963C47.4534 49.8711 48.6282 47.7384 49.6223 46.3771Z" fill="#282B30"/>
<path d="M35.0275 52.2307C34.9371 51.0963 35.0727 49.0089 35.389 47.6023L35.9312 45.0158L37.2416 45.6511C37.9645 46.0141 39.049 47.0124 39.6364 47.8291C40.2238 48.6006 41.2178 50.3249 41.8504 51.5501C42.483 52.8206 43.3867 55.271 43.8838 56.9953C44.3808 58.7197 44.923 60.8524 45.0586 61.6692C45.2393 62.4859 45.149 63.1212 44.8778 63.1212C44.6519 63.1212 43.4771 62.6675 42.3023 62.1229C41.0823 61.533 39.4104 60.3532 38.5519 59.4911C37.6934 58.6289 36.5638 57.0861 36.1119 56.0878C35.6149 55.0895 35.163 53.3652 35.0275 52.2307Z" fill="#282B30"/>
<path d="M48.583 65.3901C49.306 63.8926 50.8423 61.9414 52.3334 60.4894C53.7793 59.2188 55.1349 58.1297 55.406 58.1297C55.6771 58.1297 55.9934 58.9012 56.0837 59.8087C56.2193 60.7616 56.2193 62.5313 56.1289 63.8019C55.9934 65.0271 55.3156 67.3867 54.5475 69.0202C53.7793 70.6538 52.0623 73.1496 50.6615 74.6924C49.2608 76.1898 47.9504 77.2335 47.7697 77.052C47.5438 76.8251 47.363 74.6924 47.363 72.2874C47.363 68.4303 47.5438 67.5682 48.583 65.3901Z" fill="#282B30"/>
<path d="M35.886 66.2976C35.886 64.9363 35.9764 63.3481 36.1119 62.7582C36.2927 62.2137 36.5638 61.7599 36.7897 61.7599C37.0156 61.7599 38.2808 62.7582 39.5912 63.938C40.9015 65.1632 42.6638 67.2505 43.5223 68.6119C44.3808 69.9732 45.6912 72.7412 46.3689 74.7831C47.0467 76.8705 47.5889 78.8671 47.5889 79.2301C47.5889 79.5931 47.3178 79.9107 46.9112 79.9107C46.5497 79.9107 45.4201 79.5023 44.426 79.0032C43.4319 78.5041 41.6697 77.2335 40.5401 76.1444C39.3201 75.0554 37.9193 73.1042 37.1512 71.516C36.2023 69.5194 35.8408 68.1127 35.886 66.2976Z" fill="#282B30"/>
<path d="M52.7401 78.4133C53.2371 76.689 54.0052 75.2823 55.1349 74.1025L56.7615 72.4235L57.846 74.6924C58.3882 75.9176 59.066 78.0957 59.3371 79.457C59.6534 81.0905 59.6534 82.8603 59.3823 84.6753C59.1112 86.1728 58.1623 88.9408 57.2134 90.8012C56.2645 92.6617 55.3156 94.1591 55.0445 94.1591C54.8186 94.1138 54.1408 92.8886 53.5534 91.4365C52.8304 89.6214 52.3786 87.4887 52.243 84.9022C52.0623 82.1342 52.1978 80.3191 52.7401 78.4133Z" fill="#282B30"/>
<path d="M38.326 88.2601C37.7386 87.035 37.1512 84.8115 37.0156 83.3594L36.7445 80.6822L38.2356 80.9998C39.049 81.1813 40.8112 81.9527 42.1667 82.7695C43.5223 83.5409 45.8719 85.4014 47.4082 86.8988C48.8993 88.3963 51.1586 91.1643 52.4238 93.0247C53.6889 94.9306 54.9541 96.9272 55.2252 97.4717C55.7675 98.47 55.7223 98.47 53.3726 98.1977C52.1075 98.0616 49.803 97.5171 48.3119 97.0179C46.8208 96.5188 44.7875 95.5658 43.7934 94.8852C42.7993 94.2045 41.3986 92.934 40.6756 92.0718C39.9527 91.255 38.8682 89.5307 38.326 88.2601Z" fill="#282B30"/>
<path d="M60.5119 98.0616C60.5119 93.2516 60.6023 92.6163 61.7771 90.166C62.5 88.7139 63.3134 87.6249 63.5845 87.7156C63.9008 87.8064 64.8045 89.213 65.6178 90.8466C66.4311 92.4348 67.2897 94.9759 67.5608 96.4734C67.8319 97.9708 67.9674 100.739 67.8319 102.599C67.6963 104.46 67.2445 107.273 66.7926 108.861C66.2956 110.404 65.8437 111.675 65.7082 111.675C65.5726 111.675 64.8948 110.903 64.1267 109.95C63.4037 109.043 62.2741 107.137 61.6415 105.776C60.6474 103.552 60.5119 102.69 60.5119 98.0616Z" fill="#282B30"/>
<path d="M45.8719 106.683C45.3749 105.549 44.9682 103.734 44.9682 102.645C45.0134 100.693 45.0134 100.693 46.4141 101.011C47.2275 101.147 49.0801 101.873 50.5712 102.554C52.0623 103.235 54.2763 104.46 55.5415 105.322C56.7615 106.139 59.4726 108.226 61.506 109.905C63.5845 111.629 65.4823 113.49 66.3408 115.078L62.2741 114.715C60.06 114.488 56.9875 114.034 55.406 113.671C53.8697 113.308 51.8363 112.628 50.8875 112.174C49.9838 111.675 48.6734 110.722 47.9956 109.996C47.3178 109.315 46.3689 107.818 45.8719 106.683Z" fill="#282B30"/>
<path d="M70.6785 109.406C70.6785 107.182 70.9948 105.458 71.6726 103.688L72.7119 101.147L73.9319 102.645C74.5645 103.507 75.7845 105.322 76.5978 106.683C77.4563 108.045 78.4956 110.495 78.9022 112.128C79.3541 113.807 79.7156 116.621 79.7156 118.708C79.7156 120.705 79.4896 123.155 78.7667 125.968L77.1852 124.38C76.2815 123.518 74.9259 121.748 74.0674 120.523C73.2541 119.253 72.1697 116.984 71.6274 115.396C71.04 113.581 70.6785 111.402 70.6785 109.406Z" fill="#282B30"/>
<path d="M83.5563 121.431C83.5111 119.661 83.6919 117.891 83.8726 117.438C84.0533 117.029 84.3696 116.666 84.6407 116.666C84.9119 116.666 85.68 116.938 86.3578 117.301C87.0356 117.664 88.2104 118.617 89.0237 119.48C89.7919 120.296 90.9667 122.066 91.5993 123.337C92.277 124.653 93.0904 127.012 93.4518 128.555C93.8133 130.143 94.1296 132.503 94.1296 133.773C94.1296 135.089 94.0393 136.178 93.9037 136.178C93.8133 136.178 92.5481 135.407 91.1474 134.454C89.7467 133.546 87.9844 132.049 87.2615 131.187C86.5837 130.325 85.4541 128.464 84.7763 127.103C83.8274 125.152 83.5563 123.927 83.5563 121.431Z" fill="#282B30"/>
<path d="M55.1349 120.206C55.3156 120.069 56.0386 119.797 56.626 119.661C57.2586 119.57 59.2015 119.525 60.9186 119.616C62.6808 119.706 65.5274 120.251 67.2445 120.795C69.0067 121.295 71.763 122.429 73.3445 123.291C74.9711 124.108 77.0948 125.515 79.8963 127.92L77.6371 129.009C75.7393 129.871 74.6548 130.052 70.8593 130.052C66.8378 130.052 66.0697 129.916 63.6297 128.782C62.1386 128.056 60.1504 126.831 59.1563 126.059C58.2075 125.242 56.8067 123.7 56.0837 122.565C55.3608 121.431 54.9089 120.387 55.1349 120.206Z" fill="#282B30"/>
<path d="M96.9311 130.279C96.7052 128.918 96.6148 127.466 96.7052 127.012C96.7955 126.377 97.1118 126.377 98.5578 126.74C99.4615 127.012 101.269 127.874 102.489 128.646C103.754 129.463 105.426 130.915 106.194 131.913C106.962 132.866 108.137 134.817 108.724 136.178C109.357 137.54 110.035 139.763 110.622 143.439L109.493 143.166C108.905 143.03 107.278 142.35 105.923 141.714C104.613 141.034 102.67 139.763 101.63 138.856C100.636 137.948 99.2355 136.224 98.5578 134.999C97.88 133.773 97.157 131.641 96.9311 130.279Z" fill="#282B30"/>
<path d="M70.4074 136.178C70.543 135.906 71.6274 135.407 72.8022 135.044C74.3837 134.545 76.3719 134.409 80.3482 134.545C84.5504 134.681 86.7193 134.999 89.837 135.951C92.0963 136.587 94.5363 137.494 95.2593 137.857C96.6148 138.538 96.6148 138.583 95.7111 139.173C95.2141 139.536 93.723 140.262 92.3222 140.807C90.2889 141.669 88.9333 141.805 84.6407 141.85C79.8059 141.85 79.2637 141.76 76.5074 140.444C74.9259 139.718 72.8022 138.538 71.8985 137.857C70.9497 137.177 70.3171 136.405 70.4074 136.178Z" fill="#282B30"/>
<path d="M114.96 139.582C114.508 138.583 113.966 136.995 113.83 136.042C113.559 134.545 113.65 134.363 114.463 134.363C114.96 134.363 116.767 134.862 118.439 135.543C120.111 136.178 122.19 137.131 123.048 137.676C123.952 138.22 125.443 139.355 126.392 140.262C127.386 141.124 128.606 142.576 129.148 143.439C129.69 144.301 130.368 145.708 130.684 146.479C131.181 147.886 131.136 147.976 130.187 147.976C129.6 147.976 127.883 147.659 126.347 147.296C124.765 146.933 122.506 146.116 121.241 145.481C120.021 144.845 118.258 143.666 117.4 142.849C116.496 142.077 115.412 140.58 114.96 139.582Z" fill="#282B30"/>
<path d="M89.1593 144.845C90.063 144.573 91.9607 144.165 93.4518 143.892C94.943 143.666 98.4222 143.575 101.133 143.666C103.89 143.802 107.324 144.074 108.815 144.346C110.306 144.618 111.933 144.936 112.43 145.072C113.333 145.299 113.288 145.344 112.204 146.434C111.616 147.069 109.447 148.385 107.459 149.383C105.2 150.472 102.67 151.334 100.681 151.607C98.9644 151.879 96.6148 151.97 95.4852 151.833C94.4007 151.652 92.3674 151.244 90.9667 150.835C89.6111 150.472 87.5326 149.61 86.3578 148.975C85.1378 148.294 84.1889 147.613 84.1889 147.386C84.1889 147.205 84.957 146.706 85.9059 146.207C86.8096 145.753 88.3007 145.163 89.1593 144.845Z" fill="#282B30"/>
<path d="M108.634 151.198C109.718 150.563 112.068 149.837 113.785 149.519C115.683 149.156 119.704 148.975 123.816 149.02C127.567 149.065 130.775 149.247 130.955 149.428C131.091 149.655 130.91 150.381 130.504 151.153C130.142 151.879 129.193 153.013 128.38 153.603C127.567 154.193 126.211 154.874 125.307 155.146C124.449 155.418 122.822 155.781 121.693 155.917C120.608 156.099 118.033 155.963 116.044 155.69C114.056 155.373 111.164 154.692 109.583 154.148C108.001 153.603 106.691 152.968 106.646 152.741C106.646 152.469 107.504 151.788 108.634 151.198Z" fill="#282B30"/>
<path d="M863.327 8.94099C862.378 7.44355 860.57 5.03856 859.35 3.63187C858.085 2.1798 857.001 1 856.91 1C856.775 1 856.82 2.49744 856.956 4.31253C857.136 6.08223 857.543 9.53089 857.904 11.8905C858.266 14.2501 859.079 18.0618 859.712 20.2853C860.344 22.5541 861.655 26.0028 862.649 27.9994C863.598 29.996 864.908 32.2194 866.625 34.3522L867.213 32.3102C867.574 31.0396 867.8 27.954 867.755 24.1423C867.755 18.4248 867.664 17.7895 866.444 14.84C865.721 13.1157 864.321 10.4384 863.327 8.94099Z" fill="#282B30"/>
<path d="M873.855 28.68C873.629 27.5456 873.313 26.3204 873.177 25.9574C872.996 25.4129 872.77 25.5036 872.047 26.4112C871.55 27.0464 870.556 28.7708 869.833 30.2682C869.11 31.7657 868.207 34.5337 867.8 36.3941C867.348 38.5722 867.122 41.5217 867.348 49.2812L869.11 47.693C870.104 46.8309 871.324 45.4242 871.867 44.562C872.409 43.6998 873.222 41.8394 873.629 40.4781C874.035 39.026 874.352 36.4395 874.352 34.3522C874.352 32.3556 874.126 29.8144 873.855 28.68Z" fill="#282B30"/>
<path d="M862.83 32.764C862.016 31.4026 860.299 29.3153 858.989 28.0901V28.1355C857.678 26.9103 856.323 25.9574 856.007 25.9574C855.555 25.9574 855.374 26.5927 855.374 28.0901C855.374 29.3153 855.69 31.2665 856.097 32.5371C856.549 33.7623 857.588 35.9404 858.447 37.3017C859.305 38.663 860.841 40.6596 861.881 41.7486C862.875 42.8377 864.275 44.0175 866.218 45.0158V43.2914C866.218 42.3839 865.812 40.1604 865.27 38.4361C864.727 36.7118 863.643 34.1253 862.83 32.764Z" fill="#282B30"/>
<path d="M862.378 46.3771C861.384 45.0158 859.847 43.4276 858.989 42.8377C858.13 42.2478 857.272 41.794 857.046 41.794C856.865 41.794 856.594 42.3385 856.458 43.0646C856.278 43.7452 856.233 45.5149 856.368 47.0124C856.458 48.6913 857.001 50.7333 857.769 52.3669C858.447 53.7735 859.983 55.9063 861.203 57.0861C862.378 58.3113 864.05 59.6726 866.399 61.0793L866.128 57.2222C865.993 55.0895 865.495 52.3669 864.998 51.0963C864.547 49.8711 863.372 47.7384 862.378 46.3771Z" fill="#282B30"/>
<path d="M876.973 52.2307C877.063 51.0963 876.927 49.0089 876.611 47.6023L876.069 45.0158L874.758 45.6511C874.035 46.0141 872.951 47.0124 872.364 47.8291C871.776 48.6006 870.782 50.3249 870.15 51.5501C869.517 52.8206 868.613 55.271 868.116 56.9953C867.619 58.7197 867.077 60.8524 866.941 61.6692C866.761 62.4859 866.851 63.1212 867.122 63.1212C867.348 63.1212 868.523 62.6675 869.698 62.1229C870.918 61.533 872.59 60.3532 873.448 59.4911C874.307 58.6289 875.436 57.0861 875.888 56.0878C876.385 55.0895 876.837 53.3652 876.973 52.2307Z" fill="#282B30"/>
<path d="M863.417 65.3901C862.694 63.8926 861.158 61.9414 859.667 60.4894C858.221 59.2188 856.865 58.1297 856.594 58.1297C856.323 58.1297 856.007 58.9012 855.916 59.8087C855.781 60.7616 855.781 62.5313 855.871 63.8019C856.007 65.0271 856.684 67.3867 857.453 69.0202C858.221 70.6538 859.938 73.1496 861.338 74.6924C862.739 76.1898 864.05 77.2335 864.23 77.052C864.456 76.8251 864.637 74.6924 864.637 72.2874C864.637 68.4303 864.456 67.5682 863.417 65.3901Z" fill="#282B30"/>
<path d="M876.114 66.2976C876.114 64.9363 876.024 63.3481 875.888 62.7582C875.707 62.2137 875.436 61.7599 875.21 61.7599C874.984 61.7599 873.719 62.7582 872.409 63.938C871.098 65.1632 869.336 67.2505 868.478 68.6119C867.619 69.9732 866.309 72.7412 865.631 74.7831C864.953 76.8705 864.411 78.8671 864.411 79.2301C864.411 79.5931 864.682 79.9107 865.089 79.9107C865.45 79.9107 866.58 79.5023 867.574 79.0032C868.568 78.5041 870.33 77.2335 871.46 76.1444C872.68 75.0554 874.081 73.1042 874.849 71.516C875.798 69.5194 876.159 68.1127 876.114 66.2976Z" fill="#282B30"/>
<path d="M859.26 78.4133C858.763 76.689 857.995 75.2823 856.865 74.1025L855.238 72.4235L854.154 74.6924C853.612 75.9176 852.934 78.0957 852.663 79.457C852.347 81.0905 852.347 82.8603 852.618 84.6753C852.889 86.1728 853.838 88.9408 854.787 90.8012C855.736 92.6617 856.684 94.1591 856.956 94.1591C857.181 94.1138 857.859 92.8886 858.447 91.4365C859.17 89.6214 859.621 87.4887 859.757 84.9022C859.938 82.1342 859.802 80.3191 859.26 78.4133Z" fill="#282B30"/>
<path d="M873.674 88.2601C874.261 87.035 874.849 84.8115 874.984 83.3594L875.255 80.6822L873.764 80.9998C872.951 81.1813 871.189 81.9527 869.833 82.7695C868.478 83.5409 866.128 85.4014 864.592 86.8988C863.101 88.3963 860.841 91.1643 859.576 93.0247C858.311 94.9306 857.046 96.9272 856.775 97.4717C856.233 98.47 856.278 98.47 858.627 98.1977C859.893 98.0616 862.197 97.5171 863.688 97.0179C865.179 96.5188 867.213 95.5658 868.207 94.8852C869.201 94.2045 870.601 92.934 871.324 92.0718C872.047 91.255 873.132 89.5307 873.674 88.2601Z" fill="#282B30"/>
<path d="M851.488 98.0616C851.488 93.2516 851.398 92.6163 850.223 90.166C849.5 88.7139 848.687 87.6249 848.416 87.7156C848.099 87.8064 847.196 89.213 846.382 90.8466C845.569 92.4348 844.71 94.9759 844.439 96.4734C844.168 97.9708 844.033 100.739 844.168 102.599C844.304 104.46 844.756 107.273 845.207 108.861C845.704 110.404 846.156 111.675 846.292 111.675C846.427 111.675 847.105 110.903 847.873 109.95C848.596 109.043 849.726 107.137 850.358 105.776C851.353 103.552 851.488 102.69 851.488 98.0616Z" fill="#282B30"/>
<path d="M866.128 106.683C866.625 105.549 867.032 103.734 867.032 102.645C866.987 100.693 866.987 100.693 865.586 101.011C864.773 101.147 862.92 101.873 861.429 102.554C859.938 103.235 857.724 104.46 856.458 105.322C855.238 106.139 852.527 108.226 850.494 109.905C848.416 111.629 846.518 113.49 845.659 115.078L849.726 114.715C851.94 114.488 855.013 114.034 856.594 113.671C858.13 113.308 860.164 112.628 861.113 112.174C862.016 111.675 863.327 110.722 864.004 109.996C864.682 109.315 865.631 107.818 866.128 106.683Z" fill="#282B30"/>
<path d="M841.321 109.406C841.321 107.182 841.005 105.458 840.327 103.688L839.288 101.147L838.068 102.645C837.436 103.507 836.216 105.322 835.402 106.683C834.544 108.045 833.504 110.495 833.098 112.128C832.646 113.807 832.284 116.621 832.284 118.708C832.284 120.705 832.51 123.155 833.233 125.968L834.815 124.38C835.718 123.518 837.074 121.748 837.933 120.523C838.746 119.253 839.83 116.984 840.373 115.396C840.96 113.581 841.321 111.402 841.321 109.406Z" fill="#282B30"/>
<path d="M828.444 121.431C828.489 119.661 828.308 117.891 828.127 117.438C827.947 117.029 827.63 116.666 827.359 116.666C827.088 116.666 826.32 116.938 825.642 117.301C824.964 117.664 823.79 118.617 822.976 119.48C822.208 120.296 821.033 122.066 820.401 123.337C819.723 124.653 818.91 127.012 818.548 128.555C818.187 130.143 817.87 132.503 817.87 133.773C817.87 135.089 817.961 136.178 818.096 136.178C818.187 136.178 819.452 135.407 820.853 134.454C822.253 133.546 824.016 132.049 824.739 131.187C825.416 130.325 826.546 128.464 827.224 127.103C828.173 125.152 828.444 123.927 828.444 121.431Z" fill="#282B30"/>
<path d="M856.865 120.206C856.684 120.069 855.961 119.797 855.374 119.661C854.741 119.57 852.798 119.525 851.081 119.616C849.319 119.706 846.473 120.251 844.756 120.795C842.993 121.295 840.237 122.429 838.656 123.291C837.029 124.108 834.905 125.515 832.104 127.92L834.363 129.009C836.261 129.871 837.345 130.052 841.141 130.052C845.162 130.052 845.93 129.916 848.37 128.782C849.861 128.056 851.85 126.831 852.844 126.059C853.793 125.242 855.193 123.7 855.916 122.565C856.639 121.431 857.091 120.387 856.865 120.206Z" fill="#282B30"/>
<path d="M815.069 130.279C815.295 128.918 815.385 127.466 815.295 127.012C815.204 126.377 814.888 126.377 813.442 126.74C812.539 127.012 810.731 127.874 809.511 128.646C808.246 129.463 806.574 130.915 805.806 131.913C805.038 132.866 803.863 134.817 803.276 136.178C802.643 137.54 801.965 139.763 801.378 143.439L802.507 143.166C803.095 143.03 804.722 142.35 806.077 141.714C807.387 141.034 809.33 139.763 810.37 138.856C811.364 137.948 812.764 136.224 813.442 134.999C814.12 133.773 814.843 131.641 815.069 130.279Z" fill="#282B30"/>
<path d="M841.593 136.178C841.457 135.906 840.373 135.407 839.198 135.044C837.616 134.545 835.628 134.409 831.652 134.545C827.45 134.681 825.281 134.999 822.163 135.951C819.904 136.587 817.464 137.494 816.741 137.857C815.385 138.538 815.385 138.583 816.289 139.173C816.786 139.536 818.277 140.262 819.678 140.807C821.711 141.669 823.067 141.805 827.359 141.85C832.194 141.85 832.736 141.76 835.493 140.444C837.074 139.718 839.198 138.538 840.101 137.857C841.05 137.177 841.683 136.405 841.593 136.178Z" fill="#282B30"/>
<path d="M797.04 139.582C797.492 138.583 798.034 136.995 798.17 136.042C798.441 134.545 798.35 134.363 797.537 134.363C797.04 134.363 795.233 134.862 793.561 135.543C791.889 136.178 789.81 137.131 788.952 137.676C788.048 138.22 786.557 139.355 785.608 140.262C784.614 141.124 783.394 142.576 782.852 143.439C782.31 144.301 781.632 145.708 781.316 146.479C780.819 147.886 780.864 147.976 781.813 147.976C782.4 147.976 784.117 147.659 785.653 147.296C787.235 146.933 789.494 146.116 790.759 145.481C791.979 144.845 793.742 143.666 794.6 142.849C795.504 142.077 796.588 140.58 797.04 139.582Z" fill="#282B30"/>
<path d="M822.841 144.845C821.937 144.573 820.039 144.165 818.548 143.892C817.057 143.666 813.578 143.575 810.867 143.666C808.11 143.802 804.676 144.074 803.185 144.346C801.694 144.618 800.067 144.936 799.57 145.072C798.667 145.299 798.712 145.344 799.796 146.434C800.384 147.069 802.553 148.385 804.541 149.383C806.8 150.472 809.33 151.334 811.319 151.607C813.036 151.879 815.385 151.97 816.515 151.833C817.599 151.652 819.633 151.244 821.033 150.835C822.389 150.472 824.467 149.61 825.642 148.975C826.862 148.294 827.811 147.613 827.811 147.386C827.811 147.205 827.043 146.706 826.094 146.207C825.19 145.753 823.699 145.163 822.841 144.845Z" fill="#282B30"/>
<path d="M803.366 151.198C802.282 150.563 799.932 149.837 798.215 149.519C796.317 149.156 792.296 148.975 788.184 149.02C784.433 149.065 781.225 149.247 781.045 149.428C780.909 149.655 781.09 150.381 781.496 151.153C781.858 151.879 782.807 153.013 783.62 153.603C784.433 154.193 785.789 154.874 786.693 155.146C787.551 155.418 789.178 155.781 790.307 155.917C791.392 156.099 793.967 155.963 795.956 155.69C797.944 155.373 800.836 154.692 802.417 154.148C803.999 153.603 805.309 152.968 805.354 152.741C805.354 152.469 804.496 151.788 803.366 151.198Z" fill="#282B30"/>
</g>
<defs>
<clipPath id="clip0_7002_114729">
<rect width="912" height="155" fill="white"/>
</clipPath>
</defs>
</svg>
