<svg width="60" height="60" viewBox="0 0 60 60" fill="none" xmlns="http://www.w3.org/2000/svg">
<g id="hike">
<path id="Vector" d="M54.8221 16.55C54.5471 15.95 54.0721 15.45 53.4721 15.2C53.1721 15.075 52.8471 15 52.5221 15H40.0221C39.3471 15 38.7221 15.275 38.2471 15.725C37.7721 16.2 37.5221 16.825 37.5221 17.5C37.5221 18.175 37.7721 18.8 38.2471 19.275C38.7221 19.725 39.3471 20 40.0221 20H46.4971L32.5221 33.975L24.2971 25.725C24.0471 25.5 23.7721 25.3 23.4721 25.175C23.1721 25.05 22.8471 24.975 22.5221 24.975C22.1721 24.975 21.8471 25.05 21.5471 25.175C21.2471 25.3 20.9721 25.5 20.7471 25.725L5.74707 40.725C5.49707 40.95 5.32207 41.225 5.19707 41.55C5.07207 41.85 4.99707 42.175 4.99707 42.5C4.99707 42.825 5.07207 43.15 5.19707 43.45C5.32207 43.775 5.49707 44.05 5.74707 44.275C5.97207 44.5 6.24707 44.7 6.54707 44.825C6.84707 44.95 7.17207 45.025 7.52207 45.025C7.84707 45.025 8.17207 44.95 8.47207 44.825C8.77207 44.7 9.04707 44.5 9.29707 44.275L22.5221 31.025L30.7471 39.275C30.9721 39.5 31.2471 39.7 31.5471 39.825C31.8471 39.95 32.1721 40.025 32.5221 40.025C32.8471 40.025 33.1721 39.95 33.4721 39.825C33.7721 39.7 34.0471 39.5 34.2971 39.275L50.0221 23.525V30C50.0221 30.675 50.2721 31.3 50.7471 31.775C51.2221 32.225 51.8471 32.5 52.5221 32.5C53.1971 32.5 53.8221 32.225 54.2721 31.775C54.7471 31.3 55.0221 30.675 55.0221 30V17.5C54.9971 17.175 54.9471 16.85 54.8221 16.55Z" fill="#4C4C4C"/>
</g>
</svg>
