<svg width="28" height="28" viewBox="0 0 28 28" fill="none" xmlns="http://www.w3.org/2000/svg">
<path d="M12.681 14.8843L0.688979 19.8394C-0.170145 20.1778 -0.253634 21.5424 0.596003 21.9168L12.3474 26.7579C13.4554 27.1694 14.6247 27.1697 15.6526 26.7579L27.404 21.9168C28.2536 21.5424 28.1701 20.1778 27.311 19.8394L15.319 14.8843C14.3096 14.4738 13.7193 14.4692 12.681 14.8843Z" fill="#FFAB61"/>
<path d="M21.1064 17.2734C19.3498 18.0203 17.5771 18.7568 15.8278 19.5085C14.6857 19.9394 13.9333 20.1586 12.5445 19.6498C11.2532 19.0982 9.95761 18.5431 8.665 17.9899C7.49821 17.4415 6.72875 19.2404 7.93123 19.7054L11.766 21.3452C13.3425 22.0343 14.8193 21.9612 16.6682 21.1766L23.5311 18.2752L21.1064 17.2734Z" fill="#FF8F64"/>
<path d="M12.681 8.06109L0.688979 13.0162C-0.170145 13.3545 -0.253634 14.7192 0.596003 15.0935L12.3474 19.9346C13.4554 20.3462 14.6247 20.3465 15.6526 19.9346L27.404 15.0935C28.2536 14.7192 28.1701 13.3545 27.311 13.0162L15.319 8.06109C14.3096 7.65057 13.7193 7.64595 12.681 8.06109Z" fill="#FFC861"/>
<path d="M21.1501 10.4778C19.3907 11.2258 17.6153 11.9635 15.8631 12.7164C14.7192 13.1479 13.9657 13.3675 12.5746 12.8579C11.2813 12.3054 9.98373 11.7495 8.68908 11.1954C7.52045 10.6461 6.74979 12.4478 7.95415 12.9136L11.795 14.556C13.374 15.2461 14.853 15.1729 16.7049 14.3871L23.5786 11.4811L21.1501 10.4778Z" fill="#FFAB61"/>
<path d="M12.681 1.24273L0.688979 6.1978C-0.170145 6.53615 -0.253634 7.90082 0.596003 8.27516L12.3474 13.1163C13.4554 13.5278 14.6247 13.5281 15.6526 13.1163L27.404 8.27516C28.2536 7.90082 28.1701 6.53615 27.311 6.1978L15.319 1.24273C14.3096 0.832212 13.7193 0.827591 12.681 1.24273Z" fill="#55A1FF"/>
</svg>
