<svg width="108" height="108" viewBox="0 0 108 108" fill="none" xmlns="http://www.w3.org/2000/svg">
<g filter="url(#filter0_d_6639_33009)">
<rect x="32" y="20" width="44" height="44" rx="8" fill="white" shape-rendering="crispEdges"/>
<path d="M55.2933 32.494C55.3697 32.3719 55.4789 32.272 55.5989 32.1832C55.719 32.1055 55.8499 32.05 55.9918 32.0167C56.1337 31.9944 56.2756 31.9944 56.4175 32.0167C56.5593 32.05 56.6903 32.1055 56.8104 32.1832C56.9304 32.2609 57.0286 32.3719 57.105 32.494C57.1814 32.6162 57.236 32.7605 57.2578 32.9048C57.2797 33.0491 57.2797 33.1934 57.2578 33.3378C57.2251 33.4821 57.1705 33.6153 57.0832 33.7374L55.3261 36.3353L64.3956 49.7574H64.9086C65.2033 49.7574 65.4761 49.8795 65.6835 50.0794C65.8909 50.2792 66 50.5679 66 50.8676C66 51.1674 65.8799 51.4449 65.6835 51.6558C65.487 51.8668 65.2033 51.9778 64.9086 51.9778H59.8554L59.8117 51.9001L54.9113 44.7061C54.8131 44.5618 54.6712 44.4396 54.5184 44.3508C54.3656 44.262 54.1801 44.2176 54.0055 44.2176C53.8308 44.2176 53.6562 44.262 53.4925 44.3508C53.3397 44.4396 53.1978 44.5618 53.0996 44.7061L48.1992 51.9001L48.1555 51.9778H43.0914C42.7967 51.9778 42.5239 51.8557 42.3165 51.6558C42.1091 51.4449 42 51.1674 42 50.8676C42 50.5679 42.1201 50.2903 42.3165 50.0794C42.5239 49.8684 42.7967 49.7574 43.0914 49.7574H43.6044L52.6849 36.3464L50.9277 33.7485C50.764 33.5043 50.7094 33.2046 50.764 32.927C50.8186 32.6384 50.9823 32.383 51.2224 32.2165C51.4625 32.05 51.7462 31.9833 52.03 32.0389C52.3138 32.0944 52.5648 32.2498 52.7285 32.494L54.0164 34.3925L55.3042 32.494H55.2933Z" fill="#282B30"/>
<path d="M54.2453 46.227L57.847 51.5226C57.9779 51.7224 57.847 51.9999 57.6068 51.9999H50.4036C50.1635 51.9999 50.0216 51.7224 50.1635 51.5226L53.7651 46.227C53.8852 46.0493 54.1362 46.0493 54.2562 46.227H54.2453Z" fill="#FB813E"/>
</g>
<defs>
<filter id="filter0_d_6639_33009" x="0" y="0" width="108" height="108" filterUnits="userSpaceOnUse" color-interpolation-filters="sRGB">
<feFlood flood-opacity="0" result="BackgroundImageFix"/>
<feColorMatrix in="SourceAlpha" type="matrix" values="0 0 0 0 0 0 0 0 0 0 0 0 0 0 0 0 0 0 127 0" result="hardAlpha"/>
<feOffset dy="12"/>
<feGaussianBlur stdDeviation="16"/>
<feComposite in2="hardAlpha" operator="out"/>
<feColorMatrix type="matrix" values="0 0 0 0 0.929167 0 0 0 0 0.929167 0 0 0 0 0.929167 0 0 0 1 0"/>
<feBlend mode="normal" in2="BackgroundImageFix" result="effect1_dropShadow_6639_33009"/>
<feBlend mode="normal" in="SourceGraphic" in2="effect1_dropShadow_6639_33009" result="shape"/>
</filter>
</defs>
</svg>
