<svg width="44" height="44" viewBox="0 0 44 44" fill="none" xmlns="http://www.w3.org/2000/svg">
<rect width="44" height="44" rx="8" fill="#FFF6F3"/>
<path d="M15.5282 24.3509C16.1779 24.3509 16.7076 23.8209 16.7076 23.1709H20.036V19.8409C19.3863 19.8409 18.8566 19.3109 18.8566 18.6609C18.8566 18.0109 19.3863 17.4809 20.036 17.4809V15.5209C20.036 15.3009 19.8561 15.1309 19.6462 15.1309H12.7796C12.3498 15.1309 12 15.4809 12 15.9109V23.1609H14.3488C14.3488 23.8109 14.8786 24.3409 15.5282 24.3409V24.3509Z" fill="#282B30"/>
<path d="M21.2154 28.4709C21.2154 27.8209 20.6857 27.2909 20.036 27.2909V23.9609H17.3273C17.0275 24.6509 16.3378 25.1409 15.5282 25.1409C14.7186 25.1409 14.039 24.6609 13.7291 23.9609H12V31.2109C12 31.6509 12.3498 32.0009 12.7796 32.0009H20.026V29.6509C20.6757 29.6509 21.2054 29.1209 21.2054 28.4709H21.2154Z" fill="#282B30"/>
<path d="M28.4616 23.9593H26.5026C26.5026 23.3093 25.9729 22.7793 25.3232 22.7793C24.6735 22.7793 24.1438 23.3093 24.1438 23.9593H20.8154V26.6693C21.5051 26.9693 21.9948 27.6593 21.9948 28.4693C21.9948 29.2793 21.5151 29.9593 20.8154 30.2693V31.9993H28.0618C28.4916 31.9993 28.8414 31.6493 28.8414 31.2193V24.3593C28.8414 24.1393 28.6615 23.9693 28.4516 23.9693L28.4616 23.9593Z" fill="#282B30"/>
<path d="M31.2105 12H24.3539C24.134 12 23.9641 12.18 23.9641 12.39V14.35C23.3144 14.35 22.7847 14.88 22.7847 15.53C22.7847 16.18 23.3144 16.71 23.9641 16.71V20.04H27.2924C27.2924 19.39 27.8222 18.86 28.4718 18.86C29.1215 18.86 29.6512 19.39 29.6512 20.04H31.6103C31.8301 20.04 32.0001 19.86 32.0001 19.65V12.78C32.0001 12.35 31.6502 12 31.2205 12H31.2105Z" fill="#FB813E"/>
</svg>
