<svg width="120" height="78" viewBox="0 0 120 78" fill="none" xmlns="http://www.w3.org/2000/svg">
<path d="M85.9773 31.284L90.9868 38.9403L85.0866 47.8731L77.0659 61.9768H64.0314L79.004 39.7849L64.9007 17.8608H78.4694L85.9773 31.284Z" fill="#FF5200"/>
<mask id="mask0_2348_30357" style="mask-type:luminance" maskUnits="userSpaceOnUse" x="64" y="17" width="27" height="45">
<path d="M85.9808 31.284L90.9903 38.9403L85.0901 47.8731L77.0694 61.9768H64.0349L79.0075 39.7849L64.9043 17.8608H78.4729L85.9808 31.284Z" fill="white"/>
</mask>
<g mask="url(#mask0_2348_30357)">
<path d="M107.081 61.9764H93.3786L85.0901 47.8726L77.069 61.9764H64.0349L79.0075 39.7849L64.9038 17.8608H78.4724L86.0255 31.363L93.6454 17.8608H106.145L92.0411 39.4507L107.081 61.9764H107.081Z" fill="#FF5200"/>
</g>
<path d="M88.1713 27.1143L91.1214 31.366C92.6787 33.6102 96.0135 33.5622 97.5058 31.2743L106.253 17.8613H93.7533L88.1713 27.1143Z" fill="#FF5200"/>
<path d="M87.065 51.2259L90.6943 46.3217C92.22 44.2599 95.3268 44.3312 96.757 46.4599L107.178 61.9769H93.4755C93.4755 61.9769 86.6997 51.2259 87.065 51.2259Z" fill="#FF5200"/>
<g filter="url(#filter0_d_2348_30357)">
<path d="M24.3802 61.049V35.5141C24.3802 34.3498 24.3908 33.1515 24.4136 31.9188C24.4355 30.687 24.4471 29.4218 24.4471 28.1221C22.9689 29.4664 21.3331 30.6419 19.5419 31.65C17.7494 32.6581 15.868 33.3412 13.8974 33.6992L12.8219 24.1572C13.9867 24.0679 15.2296 23.7768 16.5516 23.2839C17.8726 22.791 19.183 22.1865 20.4826 21.4695C21.7813 20.7535 22.9461 19.9806 23.977 19.1511C25.007 18.3225 25.7914 17.5045 26.329 16.6982H35.5353V61.0486H24.3802V61.049Z" fill="#242424"/>
<path d="M57.1084 61.721C51.0603 61.721 46.4796 59.7955 43.3665 55.9421C40.252 52.0897 38.6962 46.4 38.6962 38.8742C38.6962 31.3483 40.252 25.6592 43.3665 21.8058C46.4796 17.9533 51.0607 16.0269 57.1084 16.0269C63.1561 16.0269 67.7362 17.9538 70.8503 21.8058C73.9634 25.6592 75.5206 31.3478 75.5206 38.8742C75.5206 46.4005 73.9634 52.0901 70.8503 55.9421C67.7362 59.7955 63.1561 61.721 57.1084 61.721ZM57.1084 52.7169C58.7651 52.7169 60.1094 52.258 61.1403 51.3396C62.1703 50.4218 62.9208 48.9436 63.3914 46.9041C63.8619 44.8665 64.0972 42.19 64.0972 38.8742C64.0972 35.5583 63.8619 32.8828 63.3914 30.8438C62.9213 28.8062 62.1703 27.3275 61.1403 26.4087C60.1094 25.4908 58.7651 25.0309 57.1084 25.0309C55.4517 25.0309 54.1622 25.4908 53.1099 26.4087C52.0567 27.3275 51.2955 28.8057 50.825 30.8438C50.3549 32.8828 50.1196 35.5593 50.1196 38.8742C50.1196 42.1891 50.3549 44.866 50.825 46.9041C51.2955 48.9436 52.0567 50.4218 53.1099 51.3396C54.1622 52.2585 55.4953 52.7169 57.1084 52.7169Z" fill="#242424"/>
</g>
<path d="M108.179 32.8516H7.21094V44.8715H108.179V32.8516Z" fill="#242424"/>
<path d="M42.2958 40.0908C42.1911 40.4709 42.0231 40.7848 41.7918 41.0327C41.5604 41.275 41.285 41.4541 40.9656 41.5697C40.6461 41.6799 40.2936 41.735 39.908 41.735C39.3572 41.735 38.8808 41.6248 38.4787 41.4045C38.0766 41.1787 37.7682 40.8564 37.5534 40.4378C37.3386 40.0192 37.2312 39.5152 37.2312 38.9259C37.2312 38.3365 37.3386 37.8326 37.5534 37.4139C37.7682 36.9953 38.0766 36.6759 38.4787 36.4556C38.8808 36.2297 39.3545 36.1168 39.8998 36.1168C40.2798 36.1168 40.6296 36.1719 40.9491 36.2821C41.2685 36.3867 41.5384 36.5492 41.7587 36.7695C41.979 36.9898 42.136 37.2735 42.2297 37.6205L40.9821 38.1245C40.905 37.783 40.7783 37.5489 40.6021 37.4222C40.4313 37.2955 40.2137 37.2322 39.9494 37.2322C39.6905 37.2322 39.4647 37.2955 39.2719 37.4222C39.0846 37.5489 38.9386 37.7389 38.834 37.9923C38.7348 38.2401 38.6853 38.5513 38.6853 38.9259C38.6853 39.2949 38.7321 39.6061 38.8257 39.8595C38.9194 40.1129 39.0598 40.3029 39.2471 40.4296C39.4399 40.5563 39.6767 40.6196 39.9576 40.6196C40.222 40.6196 40.4451 40.548 40.6268 40.4048C40.8141 40.2561 40.9408 40.0302 41.0069 39.7273L42.2958 40.0908ZM48.6382 40.5535H51.3729V41.6523H47.2171V36.1994H48.6382V40.5535ZM61.037 36.1994V39.4299C61.037 40.201 60.8304 40.7793 60.4173 41.1649C60.0097 41.5449 59.4038 41.735 58.5997 41.735C57.801 41.735 57.1951 41.5449 56.782 41.1649C56.3689 40.7793 56.1624 40.201 56.1624 39.4299V36.1994H57.5917V39.4547C57.5917 39.8457 57.6743 40.1376 57.8396 40.3304C58.0103 40.5232 58.2637 40.6196 58.5997 40.6196C58.9412 40.6196 59.1945 40.5232 59.3598 40.3304C59.5305 40.1376 59.6159 39.8457 59.6159 39.4547V36.1994H61.037ZM66.2665 41.6523V36.1994H68.9186C69.5905 36.2049 70.0863 36.3344 70.4057 36.5878C70.7252 36.8356 70.8849 37.1964 70.8849 37.6701C70.8849 37.9785 70.794 38.2457 70.6123 38.4715C70.4305 38.6918 70.1523 38.8323 69.7778 38.8928V38.9011C70.1964 38.9562 70.5076 39.1021 70.7114 39.339C70.9207 39.5703 71.0254 39.8512 71.0254 40.1817C71.0254 40.6499 70.8601 41.0134 70.5296 41.2723C70.1992 41.5257 69.7034 41.6523 69.0425 41.6523H66.2665ZM67.638 40.6526H68.8029C69.0618 40.6526 69.2545 40.6003 69.3812 40.4957C69.5079 40.391 69.5713 40.2395 69.5713 40.0413C69.5713 39.8485 69.5079 39.7025 69.3812 39.6034C69.2545 39.4987 69.0618 39.4464 68.8029 39.4464H67.638V40.6526ZM67.638 38.4302H68.6707C69.1774 38.4302 69.4308 38.2319 69.4308 37.8353C69.4308 37.4387 69.1774 37.2404 68.6707 37.2404H67.638V38.4302Z" fill="white"/>
<defs>
<filter id="filter0_d_2348_30357" x="11.3136" y="14.5185" width="66.2065" height="49.2021" filterUnits="userSpaceOnUse" color-interpolation-filters="sRGB">
<feFlood flood-opacity="0" result="BackgroundImageFix"/>
<feColorMatrix in="SourceAlpha" type="matrix" values="0 0 0 0 0 0 0 0 0 0 0 0 0 0 0 0 0 0 127 0" result="hardAlpha"/>
<feOffset dx="0.245541" dy="0.245541"/>
<feGaussianBlur stdDeviation="0.876932"/>
<feColorMatrix type="matrix" values="0 0 0 0 0 0 0 0 0 0 0 0 0 0 0 0 0 0 0.75 0"/>
<feBlend mode="normal" in2="BackgroundImageFix" result="effect1_dropShadow_2348_30357"/>
<feBlend mode="normal" in="SourceGraphic" in2="effect1_dropShadow_2348_30357" result="shape"/>
</filter>
</defs>
</svg>
