<svg width="108" height="108" viewBox="0 0 108 108" fill="none" xmlns="http://www.w3.org/2000/svg">
    <g filter="url(#filter0_d_6639_33009)">
        <rect x="32" y="20" width="44" height="44" rx="8" fill="white" shape-rendering="crispEdges"/>
        <g transform="translate(38,24)">
            <path d="M10.6667 20.0001C17.1663 20.0001 20.0001 17.2654 20.0001 10.6667C20.0001 17.2654 22.8139 20.0001 29.3334 20.0001C22.8139 20.0001 20.0001 22.8139 20.0001 29.3334C20.0001 22.8139 17.1663 20.0001 10.6667 20.0001Z" fill="black" stroke="black" stroke-width="2" stroke-linejoin="round"/>
            <path d="M2.66675 8.66675C6.84509 8.66675 8.66675 6.90879 8.66675 2.66675C8.66675 6.90879 10.4757 8.66675 14.6667 8.66675C10.4757 8.66675 8.66675 10.4757 8.66675 14.6667C8.66675 10.4757 6.84509 8.66675 2.66675 8.66675Z" fill="#F66C3B" stroke="#F66C3B" stroke-width="2" stroke-linejoin="round"/>
        </g>
    </g>
    <defs>
        <filter id="filter0_d_6639_33009" x="0" y="0" width="108" height="108" filterUnits="userSpaceOnUse" color-interpolation-filters="sRGB">
            <feFlood flood-opacity="0" result="BackgroundImageFix"/>
            <feColorMatrix in="SourceAlpha" type="matrix" values="0 0 0 0 0 0 0 0 0 0 0 0 0 0 0 0 0 0 127 0" result="hardAlpha"/>
            <feOffset dy="12"/>
            <feGaussianBlur stdDeviation="16"/>
            <feComposite in2="hardAlpha" operator="out"/>
            <feColorMatrix type="matrix" values="0 0 0 0 0.929167 0 0 0 0 0.929167 0 0 0 0 0.929167 0 0 0 1 0"/>
            <feBlend mode="normal" in2="BackgroundImageFix" result="effect1_dropShadow_6639_33009"/>
            <feBlend mode="normal" in="SourceGraphic" in2="effect1_dropShadow_6639_33009" result="shape"/>
        </filter>
    </defs>
</svg>
