<svg width="60" height="60" viewBox="0 0 60 60" fill="none" xmlns="http://www.w3.org/2000/svg">
<path d="M40.2542 16.4447C40.2542 19.2182 39.19 21.7169 37.1376 23.6659C35.1613 25.6149 32.6021 26.6393 29.7643 26.6393C26.9265 26.6393 24.3673 25.6149 22.3656 23.6409C20.3386 21.7169 19.2744 19.2182 19.2744 16.4447C19.2744 13.6711 20.3386 11.1724 22.391 9.22345C24.3673 7.27446 26.9265 6.25 29.7643 6.25C32.6021 6.25 35.1613 7.27446 37.163 9.24843C39.19 11.1724 40.2542 13.6711 40.2542 16.4447Z" fill="#4C4C4C"/>
<path d="M44.6607 30.9125C44.7826 31.1128 44.6815 31.3695 44.4547 31.429C37.2495 33.3192 31.6092 37.6058 30.2941 38.6335C30.1421 38.7834 29.8887 38.7834 29.7367 38.6335C28.4148 37.6004 22.6246 33.202 15.2661 31.3249C15.1006 31.2827 15.0134 31.0734 15.1168 30.9375C15.6742 30.063 16.3076 29.3134 16.9918 28.7137C17.8533 27.989 18.8414 27.4143 19.9563 27.0395C20.9698 26.6647 22.186 26.4648 23.5036 26.4648C24.8212 26.4648 25.7333 26.9396 26.5948 27.4393L27.8063 28.1322C27.8432 28.1534 27.88 28.1743 27.9181 28.1934C28.0397 28.2545 28.3525 28.3988 28.7992 28.5138C29.534 28.7387 30.2688 28.7387 30.9783 28.5138C31.582 28.3401 32.1434 28.0342 32.6925 27.7291L33.2587 27.4143C34.0695 26.9396 35.0323 26.4648 36.2992 26.4648C37.5661 26.4648 38.757 26.6647 39.8719 27.0645C40.8854 27.4143 41.8482 27.9391 42.7604 28.6887C43.4952 29.3134 44.1286 30.063 44.6607 30.9125Z" fill="#4C4C4C"/>
<path d="M53.7062 34.0849L49.2214 45.0791C49.1454 45.229 48.968 45.354 48.7906 45.354C48.7146 45.354 48.6133 45.354 48.4866 45.3789C46.3329 45.4289 38.3768 46.1535 30.37 52.3503C30.37 52.3503 30.3193 52.3503 30.294 52.4003C30.142 52.5502 29.8886 52.5502 29.7365 52.4003C29.7365 52.3753 29.6859 52.3503 29.6605 52.3503C21.7044 46.1785 13.7483 45.4539 11.544 45.3789C11.4426 45.354 11.3413 45.354 11.2399 45.354C11.0625 45.354 10.9105 45.229 10.8345 45.0791L6.32435 34.0849C6.223 33.785 6.40037 33.4602 6.72976 33.4352C9.01017 33.2353 11.2399 33.4352 13.3683 33.785C21.6031 35.3092 28.2923 40.3816 29.7365 41.506C29.8886 41.6559 30.142 41.6559 30.294 41.506C31.7382 40.3816 38.4528 35.2842 46.6876 33.785C48.8413 33.4102 51.071 33.2353 53.3261 33.4352C53.6555 33.4602 53.8329 33.785 53.7062 34.0849Z" fill="#4C4C4C"/>
<path d="M30.0173 53.7493C29.7639 53.7493 29.5106 53.6994 29.2825 53.5744H29.2065L28.8518 53.2996C21.1998 47.3527 13.6237 46.678 11.47 46.6031L11.1913 46.5531C10.5578 46.5531 9.97507 46.2033 9.67102 45.6036L5.1102 34.5094C4.9075 33.9097 4.98351 33.335 5.28757 32.9102C5.59162 32.4605 6.0477 32.1856 6.60514 32.1606C8.78419 31.9607 11.0646 32.0857 13.573 32.5354C21.0224 33.9097 27.2302 38.0326 29.992 40.1315C32.9058 37.9576 39.0883 33.8847 46.4363 32.5354C48.9701 32.0857 51.2505 31.9857 53.4295 32.1606C53.9616 32.2106 54.4684 32.4854 54.7471 32.9602C55.0258 33.435 55.0765 34.0097 54.8738 34.5344L50.389 45.5286C50.0596 46.2033 49.4261 46.5781 48.7927 46.5781H48.514C47.019 46.6281 39.139 47.1278 31.1575 53.2996L30.7521 53.5744C30.5241 53.6744 30.296 53.7493 30.0427 53.7493H30.0173ZM11.8247 44.1294C14.3839 44.2543 22.1626 45.1039 30.0173 51.0258C38.1761 44.904 46.2082 44.2043 48.2353 44.1294L52.112 34.6093C50.4903 34.5594 48.7674 34.6843 46.8923 35.0091C39.5444 36.3584 33.3873 40.6812 31.0562 42.4802C30.5241 43.0299 29.4599 43.0299 28.8264 42.3803C26.622 40.6812 20.4903 36.3584 13.117 35.0091C11.2673 34.6843 9.54433 34.5594 7.89737 34.6093L11.7994 44.1294H11.8247ZM29.5866 40.4813C29.5866 40.4813 29.4852 40.5562 29.4346 40.6062C29.4852 40.5562 29.5359 40.5312 29.5866 40.4813ZM30.4481 40.4313C30.4481 40.4313 30.5241 40.4813 30.5494 40.5063C30.5241 40.4813 30.4734 40.4563 30.4481 40.4313Z" fill="#4C4C4C"/>
<path d="M31.2828 51.1352V42.7747C31.2828 42.075 30.7156 41.5078 30.0159 41.5078C29.3162 41.5078 28.749 42.075 28.749 42.7747V51.1352C28.749 51.8349 29.3162 52.4021 30.0159 52.4021C30.7156 52.4021 31.2828 51.8349 31.2828 51.1352Z" fill="#4C4C4C"/>
</svg>
