<svg width="56" height="56" viewBox="0 0 56 56" fill="none" xmlns="http://www.w3.org/2000/svg">
<g clip-path="url(#clip0_13878_14012)">
<path d="M39.583 32.6427C38.798 31.0061 35.9896 28.7343 33.2763 26.5393C31.763 25.316 30.333 24.1593 29.4213 23.2477C29.193 23.0177 28.8513 22.9443 28.5497 23.0527C27.9881 23.2561 27.6413 23.4127 27.3681 23.5343C26.9514 23.721 26.8114 23.7843 26.2497 23.841C26.0013 23.866 25.7781 23.9993 25.6397 24.206C24.4613 25.9676 23.2413 25.8176 22.4263 25.5443C22.1663 25.4577 22.1197 25.346 22.0947 25.2393C21.9197 24.5077 22.7981 22.8043 23.9363 21.666C26.6447 18.956 28.0413 18.2776 30.9913 19.596C34.338 21.0926 37.6913 22.2643 37.7247 22.276C38.1631 22.4276 38.6347 22.1976 38.7863 21.7626C38.9363 21.3276 38.708 20.8526 38.273 20.701C38.2396 20.6893 34.953 19.541 31.673 18.0726C27.8513 16.3643 25.7546 17.4893 22.7596 20.486C21.6196 21.626 20.0713 23.9326 20.4713 25.6243C20.6429 26.3443 21.1496 26.8777 21.9029 27.126C23.7913 27.7493 25.5145 27.1526 26.7979 25.4493C27.3279 25.3677 27.6163 25.2477 28.0495 25.0527C28.2062 24.9827 28.3895 24.9011 28.6329 24.8027C29.5863 25.6977 30.8729 26.7393 32.2279 27.8343C34.6779 29.816 37.4563 32.0627 38.0813 33.3627C38.3896 34.0043 38.0579 34.4227 37.8329 34.6143C37.5029 34.8977 37.0513 34.9877 36.8063 34.816C36.5363 34.631 36.1846 34.6193 35.9063 34.786C35.6263 34.9526 35.4696 35.2676 35.5046 35.591C35.5613 36.121 35.0763 36.4243 34.8663 36.5293C34.3329 36.7993 33.7763 36.7527 33.5679 36.5593C33.3345 36.3427 32.9995 36.2793 32.7029 36.3893C32.4063 36.501 32.1995 36.7743 32.1695 37.091C32.1195 37.6376 31.7145 38.1626 31.1862 38.3676C30.9312 38.4643 30.5612 38.5226 30.2295 38.2193C30.0229 38.0326 29.7362 37.9609 29.4679 38.0259C29.1963 38.0925 28.9779 38.2893 28.8829 38.5509C28.8513 38.6343 28.7795 38.8343 27.9995 38.8343C27.4445 38.8343 26.4462 38.4593 25.9579 38.1359C25.3729 37.7509 21.7045 35.0143 18.5363 32.3609C18.0913 31.9859 17.3213 31.1825 16.6413 30.4725C16.0379 29.8425 15.4863 29.2709 15.2029 29.0309C14.8479 28.7309 14.3229 28.7759 14.0279 29.1293C13.7313 29.4809 13.7745 30.0076 14.1263 30.3043C14.3846 30.5226 14.8846 31.0509 15.4363 31.6259C16.1796 32.4025 16.9479 33.2059 17.4646 33.6393C20.568 36.2376 24.298 39.0426 25.0413 39.5309C25.6546 39.9343 26.9763 40.5009 27.9996 40.5009C28.8213 40.5009 29.453 40.3125 29.8913 39.9443C30.4779 40.1726 31.1446 40.1743 31.7863 39.9243C32.5446 39.6309 33.1679 39.0393 33.5213 38.3226C34.1779 38.4626 34.9296 38.3643 35.6129 38.021C36.2813 37.6843 36.7645 37.1693 37.0045 36.5676C37.6679 36.6026 38.3512 36.3676 38.9162 35.8826C39.873 35.0643 40.1363 33.7911 39.583 32.6427Z" fill="#6666CC"/>
<path d="M24.6661 18.834H17.1661C16.7061 18.834 16.3328 19.2073 16.3328 19.6673C16.3328 20.1273 16.7061 20.5007 17.1661 20.5007H24.6661C25.1261 20.5007 25.4995 20.1273 25.4995 19.6673C25.4995 19.2073 25.1261 18.834 24.6661 18.834Z" fill="#6666CC"/>
<path d="M42.0249 30.8679C41.7665 30.4862 41.2499 30.3812 40.8682 30.6412L38.4316 32.2779C38.05 32.5345 37.9482 33.0529 38.205 33.4345C38.3666 33.6729 38.63 33.8029 38.8983 33.8029C39.0567 33.8029 39.2183 33.7579 39.3617 33.6612L41.7983 32.0246C42.1799 31.7679 42.2815 31.2496 42.0249 30.8679Z" fill="#6666CC"/>
<path d="M36.8521 34.8434C36.2555 34.3734 33.5871 31.6418 31.9371 29.9218C31.6188 29.5884 31.0905 29.5768 30.7588 29.8968C30.4254 30.2151 30.4154 30.7434 30.7338 31.0751C31.1621 31.5218 34.9404 35.4601 35.8188 36.1535C35.9704 36.2735 36.1538 36.3318 36.3338 36.3318C36.5788 36.3318 36.8238 36.2218 36.9904 36.0135C37.2755 35.6534 37.2139 35.1284 36.8521 34.8434Z" fill="#6666CC"/>
<path d="M33.5215 36.5155C32.5231 35.7171 30.0148 33.0521 29.4481 32.4355C29.1348 32.0955 28.6098 32.0755 28.2698 32.3855C27.9314 32.6971 27.9081 33.2255 28.2198 33.5638C28.2498 33.5955 31.2431 36.8272 32.4798 37.8172C32.6331 37.9388 32.8181 37.9988 32.9998 37.9988C33.2431 37.9988 33.4864 37.8905 33.6514 37.6872C33.9382 37.3271 33.8798 36.8021 33.5215 36.5155Z" fill="#6666CC"/>
<path d="M30.2051 38.1933C29.0167 37.1917 26.5851 34.6033 26.1101 34.0949C25.7951 33.7583 25.2667 33.7399 24.9317 34.0549C24.5951 34.3699 24.5783 34.8966 24.8917 35.2333C25.5751 35.9649 27.9017 38.4317 29.1301 39.4683C29.2867 39.5999 29.4767 39.6649 29.6667 39.6649C29.9033 39.6649 30.1401 39.5633 30.3051 39.3683C30.6017 39.0149 30.5567 38.4899 30.2051 38.1933Z" fill="#6666CC"/>
<path d="M17.74 17.3945C16.3116 16.0411 10.6 15.6028 8.88336 15.5011C8.64672 15.4895 8.42836 15.5678 8.26172 15.7261C8.095 15.8828 8 16.1028 8 16.3328V31.3328C8 31.7928 8.37336 32.1661 8.83336 32.1661H13.8334C14.1934 32.1661 14.5134 31.9345 14.625 31.5911C14.7466 31.2178 17.6184 22.4045 17.9966 18.0711C18.0184 17.8178 17.925 17.5678 17.74 17.3945ZM13.225 30.4995H9.66664V17.2261C12.345 17.4378 15.235 17.8978 16.285 18.4078C15.8434 22.0578 13.845 28.5428 13.225 30.4995Z" fill="#6666CC"/>
<path d="M47.1672 17.168C40.6238 17.168 36.9938 18.843 36.8422 18.913C36.6255 19.0146 36.4638 19.203 36.3972 19.4313C36.3305 19.6597 36.3638 19.9047 36.4888 20.108C37.5188 21.7663 40.7438 30.9763 41.3638 33.223C41.4638 33.5846 41.7922 33.8346 42.1672 33.8346H47.1672C47.6272 33.8346 48.0005 33.4613 48.0005 33.0013V18.0013C48.0005 17.5396 47.6272 17.168 47.1672 17.168ZM46.3339 32.168H42.7905C42.0005 29.5946 39.6672 22.8846 38.3655 20.1113C39.6372 19.6797 42.3689 18.938 46.3339 18.8447V32.168Z" fill="#6666CC"/>
</g>
<defs>
<clipPath id="clip0_13878_14012">
<rect width="40" height="40" fill="white" transform="translate(8 8)"/>
</clipPath>
</defs>
</svg>
