<svg width="24" height="24" viewBox="0 0 24 24" fill="none" xmlns="http://www.w3.org/2000/svg">
<g clip-path="url(#clip0_51_56)">
<path d="M11.9143 2.00568C6.84976 2.00568 7.16598 4.21078 7.16598 4.21078L7.1716 6.49533H12.0046V7.18121H5.25202C5.25202 7.18121 2.01123 6.81219 2.01123 11.9428C2.01123 17.0735 4.83987 16.8916 4.83987 16.8916H6.52799V14.5107C6.52799 14.5107 6.43699 11.6707 9.31148 11.6707H14.1049C14.1049 11.6707 16.798 11.7144 16.798 9.05745V4.66435C16.798 4.66435 17.2071 2.00568 11.9143 2.00568ZM9.24938 3.54199C9.36358 3.54189 9.47669 3.5644 9.58222 3.60823C9.68775 3.65206 9.78364 3.71636 9.8644 3.79744C9.94516 3.87852 10.0092 3.97479 10.0529 4.08075C10.0965 4.18671 10.1189 4.30027 10.1188 4.41493C10.1189 4.5296 10.0965 4.64316 10.0529 4.74912C10.0092 4.85507 9.94516 4.95135 9.8644 5.03243C9.78364 5.11351 9.68775 5.1778 9.58222 5.22164C9.47669 5.26547 9.36358 5.28798 9.24938 5.28788C9.13517 5.28798 9.02206 5.26547 8.91653 5.22164C8.811 5.1778 8.71511 5.11351 8.63435 5.03243C8.5536 4.95135 8.48956 4.85507 8.4459 4.74912C8.40224 4.64316 8.37982 4.5296 8.37993 4.41493C8.37982 4.30027 8.40224 4.18671 8.4459 4.08075C8.48956 3.97479 8.5536 3.87852 8.63435 3.79744C8.71511 3.71636 8.811 3.65206 8.91653 3.60823C9.02206 3.5644 9.13517 3.54189 9.24938 3.54199Z" fill="url(#paint0_linear_51_56)"/>
<path d="M12.0582 21.9316C17.1227 21.9316 16.8065 19.7265 16.8065 19.7265L16.8008 17.442H11.9678V16.7562H18.7203C18.7203 16.7562 21.9611 17.1252 21.9611 11.9944C21.9611 6.86376 19.1325 7.04572 19.1325 7.04572H17.4444V9.42651C17.4444 9.42651 17.5354 12.2665 14.6609 12.2665H9.86742C9.86742 12.2665 7.17432 12.2228 7.17432 14.8798V19.273C7.17432 19.273 6.76537 21.9316 12.0581 21.9316H12.0582ZM14.7231 20.3955C14.6089 20.3956 14.4957 20.3731 14.3902 20.3292C14.2847 20.2854 14.1888 20.2211 14.108 20.14C14.0273 20.0589 13.9632 19.9627 13.9196 19.8567C13.8759 19.7507 13.8535 19.6372 13.8536 19.5225C13.8535 19.4078 13.8759 19.2943 13.9196 19.1883C13.9632 19.0823 14.0273 18.9861 14.108 18.905C14.1888 18.8239 14.2847 18.7596 14.3902 18.7157C14.4957 18.6719 14.6088 18.6494 14.7231 18.6495C14.8373 18.6494 14.9504 18.6719 15.0559 18.7157C15.1614 18.7596 15.2573 18.8239 15.3381 18.9049C15.4188 18.986 15.4829 19.0823 15.5265 19.1883C15.5702 19.2942 15.5926 19.4078 15.5925 19.5224C15.5926 19.6371 15.5702 19.7507 15.5265 19.8566C15.4829 19.9626 15.4188 20.0588 15.3381 20.1399C15.2573 20.221 15.1614 20.2853 15.0559 20.3291C14.9504 20.373 14.8373 20.3955 14.7231 20.3954V20.3955Z" fill="url(#paint1_linear_51_56)"/>
</g>
<defs>
<linearGradient id="paint0_linear_51_56" x1="3.9284" y1="3.79789" x2="13.8542" y2="13.5853" gradientUnits="userSpaceOnUse">
<stop stop-color="#387EB8"/>
<stop offset="1" stop-color="#366994"/>
</linearGradient>
<linearGradient id="paint1_linear_51_56" x1="9.99681" y1="10.1085" x2="20.654" y2="20.1427" gradientUnits="userSpaceOnUse">
<stop stop-color="#FFE052"/>
<stop offset="1" stop-color="#FFC331"/>
</linearGradient>
<clipPath id="clip0_51_56">
<rect width="20" height="20" fill="white" transform="translate(2 2)"/>
</clipPath>
</defs>
</svg>
