<svg width="24" height="24" viewBox="0 0 24 24" fill="none" xmlns="http://www.w3.org/2000/svg">
<path d="M4.12757 15.2195C3.67942 15.2195 3.31332 15.5211 3.31332 15.8902C3.31332 16.2594 3.67942 16.5609 4.12757 16.5609C4.57572 16.5609 4.94181 16.2594 4.94181 15.8902C4.94813 15.5211 4.58203 15.2195 4.12757 15.2195Z" fill="#FFD049"/>
<path d="M8.19841 17.9024C7.75024 17.9024 7.38412 18.2643 7.38412 18.7073C7.38412 19.1503 7.75024 19.5122 8.19841 19.5122C8.64658 19.5122 9.0127 19.1503 9.0127 18.7073C9.0127 18.2643 8.65921 17.9086 8.21103 17.9024C8.20472 17.9024 8.19841 17.9024 8.19841 17.9024Z" fill="#FFD049"/>
<path d="M11.9997 20.5854C11.5515 20.5854 11.1854 20.9473 11.1854 21.3903C11.1854 21.8333 11.5515 22.1951 11.9997 22.1951C12.4479 22.1951 12.814 21.8333 12.814 21.3903C12.814 20.9473 12.4479 20.5854 11.9997 20.5854Z" fill="#FFD049"/>
<path d="M15.7864 17.9024C15.3445 17.9086 14.9847 18.2705 14.9847 18.7073C14.9847 19.1503 15.3508 19.5122 15.799 19.5122C16.2472 19.5122 16.6133 19.1503 16.6133 18.7073C16.6133 18.2643 16.2472 17.9024 15.799 17.9024C15.7927 17.9024 15.7864 17.9024 15.7864 17.9024Z" fill="#FFD049"/>
<path d="M19.5998 15.2195C19.1516 15.2195 18.7855 15.5211 18.7855 15.8903C18.7855 16.2594 19.1516 16.561 19.5998 16.561C20.0479 16.561 20.4141 16.2594 20.4141 15.8903C20.4141 15.5211 20.0479 15.2195 19.5998 15.2195Z" fill="#FFD049"/>
<path d="M9.82799 11.0351C9.82799 11.0884 9.82799 11.1418 9.83402 11.1952H13.8934C13.8934 11.1418 13.8994 11.0884 13.8994 11.0351C13.8994 9.78773 12.9886 8.78052 11.8667 8.78052C10.7388 8.78052 9.82799 9.7944 9.82799 11.0351Z" fill="#82A4F3"/>
<path d="M14.1755 4.13703C14.1382 2.5399 12.9214 1.26219 11.4314 1.26833C10.1463 1.26833 9.06608 2.23276 8.77429 3.52275C8.35213 3.16032 7.81822 2.94532 7.24085 2.95147C5.88125 2.95761 4.7886 4.14317 4.7886 5.60517C4.7886 5.65431 4.7886 5.70345 4.79481 5.75259C3.63386 6.01673 2.76471 7.12244 2.77092 8.44929C2.77092 9.96657 3.91944 11.1951 5.32872 11.1951L6.76282 11.1828L7.47056 11.1767V11.1706H7.7251V10.0341C7.84305 10.028 8.71221 9.99114 8.81775 10.0157L9.27095 8.93458C9.17782 8.87315 8.58804 8.23429 8.51354 8.14829L9.44478 7.21459C9.53169 7.2883 10.1711 7.87801 10.2332 7.97015L11.3197 7.52173C11.2948 7.4173 11.3321 6.54502 11.3383 6.4283H12.6544C12.6607 6.54502 12.6979 7.41116 12.6731 7.52173L13.7595 7.97015C13.8216 7.87801 14.461 7.2883 14.548 7.21459L15.4792 8.14215C15.4047 8.22815 14.8087 8.867 14.7218 8.92843L15.175 10.0096C15.2805 9.985 16.1559 10.0219 16.2676 10.028V11.1644H18.6826C20.0919 11.1583 21.228 9.92971 21.228 8.41244V8.40629C21.228 6.89516 20.0919 5.67274 18.6951 5.66045C18.6951 5.62974 18.6951 5.59902 18.6951 5.56831C18.6889 4.10632 17.59 2.92075 16.2304 2.92689C15.3674 2.92689 14.61 3.41218 14.1755 4.13703Z" fill="#82A4F3"/>
<path fill-rule="evenodd" clip-rule="evenodd" d="M12.7704 6.34428C12.7632 6.20599 12.6514 6.0976 12.5159 6.0976H11.2144C11.0789 6.0976 10.9671 6.20599 10.96 6.34428C10.9568 6.40626 10.946 6.65935 10.939 6.91135C10.9355 7.03732 10.933 7.16493 10.9329 7.26909C10.9329 7.2812 10.9329 7.2931 10.9329 7.30475L10.1886 7.62204C10.1814 7.61451 10.1739 7.60683 10.1663 7.59904C10.0948 7.52594 10.0056 7.43777 9.91669 7.35125C9.7409 7.18019 9.5566 7.00612 9.50776 6.96334C9.40643 6.87458 9.25526 6.88077 9.1612 6.97753L8.24032 7.92489C8.14672 8.02118 8.1412 8.17479 8.22763 8.27783C8.26844 8.32649 8.43607 8.51525 8.60259 8.69719C8.68646 8.78883 8.772 8.88087 8.84302 8.95455C8.85107 8.96291 8.859 8.9711 8.86678 8.97908L8.55518 9.74681C8.54508 9.74677 8.53478 9.74675 8.52432 9.74676C8.42333 9.74686 8.29921 9.74949 8.17671 9.75304C7.93186 9.76015 7.68542 9.77121 7.62725 9.77451C7.49224 9.78218 7.38661 9.89629 7.38661 10.0345V11.1952H7.89616V10.2838C7.98465 10.2803 8.08791 10.2766 8.19117 10.2736C8.31194 10.2701 8.4307 10.2676 8.52482 10.2675C8.57208 10.2674 8.61105 10.268 8.64003 10.2692C8.66321 10.2701 8.67226 10.2712 8.67228 10.2711C8.67229 10.271 8.669 10.2704 8.66354 10.2691C8.78506 10.2983 8.9094 10.2333 8.95723 10.1154L9.40539 9.0112C9.45157 8.89742 9.41338 8.76631 9.31425 8.69679C9.31515 8.69742 9.31563 8.69775 9.31565 8.69772C9.31575 8.69759 9.30799 8.69118 9.28932 8.67317C9.26763 8.65225 9.23945 8.6238 9.20606 8.58915C9.13951 8.5201 9.05738 8.43177 8.97473 8.34147C8.90268 8.26276 8.83171 8.18415 8.77171 8.11711L9.35047 7.52171C9.41467 7.58277 9.48978 7.65487 9.56532 7.72837C9.6529 7.8136 9.73864 7.89836 9.80572 7.967C9.83937 8.00145 9.86709 8.03057 9.88753 8.05301C9.9055 8.07275 9.91189 8.08091 9.91202 8.08081C9.91206 8.08078 9.91149 8.07994 9.91048 8.07841C9.97832 8.18111 10.1077 8.22077 10.2197 8.17302L11.2941 7.71502C11.4063 7.6672 11.4695 7.54522 11.4459 7.42391C11.446 7.42429 11.446 7.42449 11.446 7.42449C11.4462 7.42447 11.445 7.41458 11.4441 7.38916C11.4429 7.35882 11.4424 7.31838 11.4424 7.2696C11.4425 7.17241 11.4449 7.05024 11.4484 6.92604C11.4514 6.81834 11.455 6.71054 11.4585 6.61833H12.2718C12.2753 6.71121 12.279 6.8199 12.282 6.92837C12.2854 7.05298 12.2878 7.17535 12.2879 7.27225C12.288 7.3209 12.2874 7.36101 12.2863 7.39083C12.2854 7.41471 12.2843 7.42403 12.2844 7.42405C12.2844 7.42405 12.2844 7.42405 12.2845 7.42403C12.2609 7.54514 12.324 7.66716 12.4363 7.71502L13.5106 8.17302C13.6242 8.22144 13.7549 8.17986 13.8218 8.07546C13.8222 8.07515 13.8278 8.06787 13.8426 8.05128C13.8621 8.02952 13.8891 8.00089 13.9224 7.96662C13.9888 7.89838 14.0744 7.81392 14.1623 7.72876C14.2384 7.65506 14.3144 7.58255 14.3794 7.52118L14.9587 8.11711C14.8986 8.18415 14.8277 8.26276 14.7556 8.34147C14.673 8.43177 14.5908 8.5201 14.5243 8.58915C14.4909 8.6238 14.4627 8.65225 14.441 8.67317C14.4224 8.69118 14.4146 8.69759 14.4147 8.69772C14.4147 8.69775 14.4152 8.69741 14.4161 8.69677C14.317 8.76628 14.2788 8.89741 14.325 9.0112L14.7731 10.1154C14.8198 10.2304 14.9394 10.2952 15.0581 10.271C15.0581 10.271 15.0581 10.271 15.0581 10.271C15.0581 10.2712 15.0671 10.2701 15.0901 10.2692C15.1189 10.268 15.1577 10.2674 15.2047 10.2675C15.2983 10.2676 15.4165 10.2701 15.5369 10.2736C15.6408 10.2766 15.7449 10.2803 15.8342 10.2839V11.1952H16.3438V10.0345C16.3438 9.896 16.2377 9.78175 16.1024 9.77447C16.0418 9.77121 15.7957 9.76015 15.5514 9.75304C15.4293 9.74949 15.3057 9.74686 15.2052 9.74676C15.195 9.74675 15.185 9.74677 15.1752 9.74681L14.8636 8.97908C14.8714 8.9711 14.8793 8.96291 14.8873 8.95455C14.9584 8.88087 15.0439 8.78883 15.1278 8.69719C15.2943 8.51525 15.4619 8.32649 15.5027 8.27783C15.5892 8.17479 15.5836 8.02118 15.49 7.92489L14.5692 6.97753C14.4751 6.88077 14.3239 6.87458 14.2226 6.96334C14.1742 7.0057 13.989 7.17918 13.8118 7.35086C13.7224 7.43745 13.6327 7.52592 13.5611 7.59943C13.5539 7.60681 13.5469 7.61411 13.54 7.62129L12.7974 7.30475C12.7975 7.29396 12.7975 7.28294 12.7975 7.27174C12.7974 7.16787 12.7948 7.04007 12.7913 6.91373C12.7844 6.66099 12.7736 6.40632 12.7704 6.34428Z" fill="#496EC5"/>
<path fill-rule="evenodd" clip-rule="evenodd" d="M11.8638 9.05707C12.8573 9.05707 13.665 9.92593 13.665 11.0037C13.665 11.02 13.664 11.0378 13.6624 11.0655L13.6623 11.0682C13.6608 11.0928 13.6589 11.1264 13.6589 11.1613H14.1648C14.1648 11.1449 14.1658 11.1272 14.1674 11.0995L14.1675 11.0968C14.1689 11.0722 14.1709 11.0386 14.1709 11.0037C14.1709 9.62603 13.1377 8.51215 11.8638 8.51215C10.5898 8.51215 9.55661 9.62603 9.55661 11.0037L9.55661 11.009C9.5566 11.0584 9.55659 11.1255 9.56466 11.1951L10.0667 11.1275C10.0629 11.0946 10.0625 11.059 10.0625 11.0037C10.0625 9.92593 10.8702 9.05707 11.8638 9.05707Z" fill="#496EC5"/>
<path fill-rule="evenodd" clip-rule="evenodd" d="M9.01318 3.24563C8.52686 2.85106 7.90736 2.60974 7.234 2.60974L7.23277 2.60974C5.64186 2.61665 4.39217 3.94358 4.39893 5.53567C4.39893 5.53584 4.39893 5.53602 4.39893 5.5362L4.66847 5.53512H4.39893C4.39893 5.5353 4.39893 5.53549 4.39893 5.53567C4.39895 5.56831 4.40101 5.59967 4.40253 5.62271L4.4027 5.62525C4.40441 5.65131 4.40542 5.66803 4.40542 5.6834C4.40542 5.68764 4.40553 5.69187 4.40575 5.69611C4.45525 6.64451 4.95726 7.4843 5.69613 7.97559L6.00499 7.55531C5.4073 7.15788 4.9876 6.46781 4.94448 5.67631C4.9445 5.67866 4.94451 5.68103 4.94451 5.6834H4.67496L4.94418 5.67068C4.94427 5.67256 4.94437 5.67444 4.94448 5.67631C4.94421 5.64605 4.94232 5.61731 4.9409 5.59582L4.94073 5.59326C4.93902 5.5672 4.93801 5.55049 4.93801 5.53512L4.93801 5.53404C4.93205 4.18577 5.98115 3.12832 7.23461 3.12253C7.23441 3.12253 7.2342 3.12253 7.234 3.12253V2.86614L7.23523 3.12253C7.23502 3.12253 7.23482 3.12253 7.23461 3.12253C7.76908 3.12268 8.2665 3.31381 8.66335 3.63578L9.01318 3.24563Z" fill="#82A4F3"/>
<path fill-rule="evenodd" clip-rule="evenodd" d="M18.7856 5.46891C18.7789 3.90694 17.5842 2.60974 16.0619 2.60974L16.06 2.60975C15.0969 2.61651 14.26 3.14463 13.7841 3.92809L13.7838 3.92858C13.5406 4.33105 13.3843 4.79474 13.3571 5.29901L13.8719 5.32548C13.8944 4.90778 14.0237 4.52229 14.2277 4.18474C14.6213 3.53698 15.2996 3.11893 16.0628 3.11324C17.2606 3.11377 18.2641 4.14554 18.2701 5.4705V5.56096H18.7856V5.46997L18.7856 5.46891Z" fill="#82A4F3"/>
<path fill-rule="evenodd" clip-rule="evenodd" d="M11.4511 1.50783C12.7767 1.50237 13.894 2.64433 13.9284 4.11697L14.4419 4.10526C14.402 2.39663 13.0939 0.993555 11.4495 1.00002C10.0311 1.00029 8.86396 2.06097 8.55092 3.44384L8.55052 3.44564C8.49705 3.69017 8.47047 3.94067 8.47047 4.19677C8.47047 4.58648 8.53727 4.95617 8.65072 5.29268L9.13798 5.1321C9.04103 4.84455 8.98408 4.52901 8.98408 4.19677C8.98408 3.97598 9.00693 3.76181 9.05233 3.55389C9.32122 2.36775 10.3071 1.50783 11.45 1.50783L11.4511 1.50783Z" fill="#82A4F3"/>
<path fill-rule="evenodd" clip-rule="evenodd" d="M7.38525 6.09748V5.2926H6.8424V6.09748H7.38525Z" fill="#DEE7FC"/>
<path fill-rule="evenodd" clip-rule="evenodd" d="M11.457 4.21949V3.41461H10.9142V4.21949H11.457Z" fill="#DEE7FC"/>
<path fill-rule="evenodd" clip-rule="evenodd" d="M16.0713 5.29267V4.48779H15.5284V5.29267H16.0713Z" fill="#DEE7FC"/>
<path fill-rule="evenodd" clip-rule="evenodd" d="M18.5132 8.78046V7.97559H17.9703V8.78046H18.5132Z" fill="#DEE7FC"/>
<path fill-rule="evenodd" clip-rule="evenodd" d="M5.48633 9.5854V8.78052H4.94347V9.5854H5.48633Z" fill="#DEE7FC"/>
<path fill-rule="evenodd" clip-rule="evenodd" d="M4.69199 5.56097C3.42055 5.84569 2.49372 7.06201 2.50006 8.48529C2.50035 10.1178 3.72681 11.4634 5.27357 11.4634L5.27577 11.4634L6.68851 11.4512H6.68854L7.38574 11.4451L7.38129 10.939L6.68412 10.9451H6.68409L5.27253 10.9573C4.04336 10.9567 3.00767 9.87595 3.00767 8.48473L3.00767 8.48355C3.00205 7.27293 3.78756 6.28222 4.80323 6.05477L4.69199 5.56097Z" fill="#82A4F3"/>
<path fill-rule="evenodd" clip-rule="evenodd" d="M18.6907 5.29261L18.6884 5.2926H18.6634C17.8567 5.2926 17.1379 5.65778 16.6245 6.23719L17.0118 6.58562C17.4367 6.10611 18.0189 5.81576 18.6634 5.81576H18.6872C19.9325 5.82758 20.9808 6.94506 20.9808 8.37166V8.37797C20.9808 9.81176 19.9319 10.9343 18.6753 10.9402H7.38572V11.4633H18.6759L18.677 11.4633C20.2599 11.4563 21.5 10.0577 21.5 8.37797V8.37166C21.5 6.69757 20.2596 5.30667 18.6907 5.29261Z" fill="#82A4F3"/>
<path fill-rule="evenodd" clip-rule="evenodd" d="M12.272 20.0488V12H11.7291V20.0488H12.272Z" fill="#496EC5"/>
<path fill-rule="evenodd" clip-rule="evenodd" d="M13.11 21.3913C13.1094 21.9969 12.6131 22.4871 12.0003 22.4871C11.3872 22.4871 10.8907 21.9964 10.8907 21.3903C10.8907 20.7842 11.3872 20.2934 12.0003 20.2934C12.6112 20.2934 13.1044 20.7821 13.11 21.3913ZM13.6289 21.3882C13.6215 20.5024 12.902 19.7805 12.0003 19.7805C11.1006 19.7805 10.3718 20.5009 10.3718 21.3903C10.3718 22.2796 11.1006 23 12.0003 23C12.9001 23 13.6289 22.2796 13.6289 21.3903L13.6289 21.3882Z" fill="#496EC5"/>
<path fill-rule="evenodd" clip-rule="evenodd" d="M15.7939 17.6104C16.4086 17.6104 16.9098 18.1027 16.9098 18.7073C16.9098 19.3134 16.4133 19.8041 15.8001 19.8041C15.187 19.8041 14.6905 19.3134 14.6905 18.7073C14.6905 18.1051 15.1711 17.6215 15.7712 17.6104H15.7939ZM17.4287 18.7073C17.4287 17.8164 16.6921 17.0975 15.7939 17.0975H15.7689C15.7674 17.0975 15.766 17.0975 15.7645 17.0976C14.8776 17.1123 14.1716 17.8271 14.1716 18.7073C14.1716 19.5966 14.9004 20.317 15.8001 20.317C16.6999 20.317 17.4287 19.5966 17.4287 18.7073Z" fill="#496EC5"/>
<path fill-rule="evenodd" clip-rule="evenodd" d="M19.599 14.8848C20.2121 14.8848 20.7086 15.3347 20.7086 15.8903C20.7086 16.4459 20.2121 16.8957 19.599 16.8957C18.9858 16.8957 18.4893 16.4459 18.4893 15.8903C18.4893 15.3347 18.9858 14.8848 19.599 14.8848ZM21.2275 15.8903C21.2275 15.075 20.4987 14.4147 19.599 14.4147C18.6992 14.4147 17.9704 15.075 17.9704 15.8903C17.9704 16.7055 18.6992 17.3659 19.599 17.3659C20.4987 17.3659 21.2275 16.7055 21.2275 15.8903Z" fill="#496EC5"/>
<path fill-rule="evenodd" clip-rule="evenodd" d="M17.1571 12V13.6822C17.1571 13.7526 17.1823 13.8201 17.2273 13.8699L18.4465 15.2195L18.7856 14.8441L17.6367 13.5723V12H17.1571Z" fill="#496EC5"/>
<path fill-rule="evenodd" clip-rule="evenodd" d="M14.7141 12V14.9755C14.7141 15.044 14.7395 15.1097 14.7846 15.1582L15.5899 16.0225V17.3659H16.0713V15.9155C16.0713 15.8469 16.0459 15.7812 16.0008 15.7328L15.1955 14.8685V12H14.7141Z" fill="#496EC5"/>
<path fill-rule="evenodd" clip-rule="evenodd" d="M8.23566 17.0976C8.23421 17.0975 8.23275 17.0975 8.2313 17.0975H8.20629C7.30809 17.0975 6.57147 17.8164 6.57147 18.7073C6.57147 19.5966 7.3003 20.317 8.20004 20.317C9.09979 20.317 9.82861 19.5966 9.82861 18.7073C9.82861 17.8271 9.12254 17.1123 8.23566 17.0976ZM8.22901 17.6104C8.82908 17.6215 9.30972 18.1051 9.30972 18.7073C9.30972 19.3134 8.81321 19.8041 8.20004 19.8041C7.58687 19.8041 7.09036 19.3134 7.09036 18.7073C7.09036 18.1027 7.59158 17.6104 8.20629 17.6104H8.22901Z" fill="#496EC5"/>
<path fill-rule="evenodd" clip-rule="evenodd" d="M5.75684 15.8903C5.75684 15.075 5.02801 14.4147 4.12827 14.4147C3.2336 14.4147 2.50711 15.0757 2.4997 15.8883L2.49969 15.8903C2.49969 16.7055 3.22852 17.3659 4.12827 17.3659C5.02801 17.3659 5.75684 16.7055 5.75684 15.8903ZM4.12827 14.8848C4.74143 14.8848 5.23794 15.3347 5.23794 15.8903C5.23794 16.4459 4.74143 16.8957 4.12827 16.8957C3.51545 16.8957 3.01915 16.4464 3.01859 15.8912C3.02426 15.3335 3.52288 14.8848 4.12827 14.8848Z" fill="#496EC5"/>
<path fill-rule="evenodd" clip-rule="evenodd" d="M6.28373 13.5657V12H6.84326V13.6761C6.84326 13.7468 6.81379 13.8145 6.76132 13.8645L5.33891 15.2195L4.94326 14.8426L6.28373 13.5657Z" fill="#496EC5"/>
<path fill-rule="evenodd" clip-rule="evenodd" d="M8.8022 14.869V12H9.28564V14.9755C9.28564 15.0437 9.2604 15.1092 9.21541 15.1576L8.41195 16.022V17.3659H7.9285V15.9155C7.9285 15.8472 7.95375 15.7818 7.99873 15.7334L8.8022 14.869Z" fill="#496EC5"/>
</svg>
