<svg width="44" height="44" viewBox="0 0 44 44" fill="none" xmlns="http://www.w3.org/2000/svg">
<rect width="44" height="44" rx="8" fill="white"/>
<path d="M28.2747 19.8616C28.7145 18.7622 29.4042 17.6827 30.3337 16.6332C30.6236 16.3034 30.6636 15.8236 30.4237 15.4538C30.2338 15.1639 29.9339 15.004 29.5941 15.004C29.5041 15.004 29.4042 15.004 29.3142 15.044C27.3552 15.6137 22.7774 17.6327 22.6475 24.0996C22.5975 26.5884 24.4366 28.7373 26.8355 28.9772C28.1648 29.1071 29.4842 28.6773 30.4637 27.8078C31.4432 26.9282 32.0029 25.6688 32.0029 24.3594C32.0029 22.1805 30.4437 20.2714 28.2747 19.8616Z" fill="#FB813E"/>
<path d="M16.2009 28.9772C17.5203 29.1071 18.8396 28.6773 19.8191 27.8078C20.7987 26.9282 21.3584 25.6688 21.3584 24.3594C21.3584 22.1805 19.7992 20.2714 17.6302 19.8616C18.07 18.7622 18.7597 17.6827 19.6892 16.6332C19.9791 16.3034 20.0191 15.8236 19.7792 15.4538C19.5893 15.1639 19.2894 15.004 18.9496 15.004C18.8596 15.004 18.7597 15.004 18.6697 15.044C16.7107 15.6137 12.1329 17.6327 12.003 24.0996L12.003 24.1895C12.003 26.6383 13.8221 28.7273 16.1909 28.9772L16.2009 28.9772Z" fill="black"/>
</svg>
