<svg width="25" height="24" viewBox="0 0 25 24" fill="none" xmlns="http://www.w3.org/2000/svg">
<path fill-rule="evenodd" clip-rule="evenodd" d="M6.50001 7.03763C6.5 7.03925 6.5 7.04088 6.5 7.0425L6.5 7.0325C6.5 7.03421 6.5 7.03592 6.50001 7.03763ZM6.50001 7.03763C6.50119 7.29579 6.59132 7.54382 6.79 7.7425L11.69 12.6425C12.08 13.0325 12.71 13.0325 13.1 12.6425L18.03 7.7125C18.42 7.3225 18.42 6.6825 18.03 6.2925C17.64 5.9025 17 5.9025 16.61 6.2925L12.39 10.5225L8.2 6.3325C7.81 5.9425 7.18 5.9425 6.79 6.3325C6.60119 6.53125 6.50125 6.77938 6.50001 7.03763ZM6.50025 12.7176C6.50024 12.7192 6.50023 12.7208 6.50023 12.7224L6.50023 12.7124C6.50023 12.7141 6.50024 12.7159 6.50025 12.7176ZM6.50025 12.7176C6.50142 12.9757 6.59155 13.2237 6.79023 13.4224L11.6802 18.3124C12.0702 18.7024 12.7002 18.7024 13.0902 18.3124L18.0202 13.3824C18.4102 12.9924 18.4102 12.3624 18.0202 11.9724C17.6302 11.5824 17.0002 11.5824 16.6102 11.9724L12.3902 16.1924L8.20023 12.0124C7.81023 11.6224 7.18023 11.6224 6.79023 12.0124C6.60142 12.2112 6.50149 12.4593 6.50025 12.7176Z" fill="white"/>
</svg>
