<svg width="40" height="40" viewBox="0 0 40 40" fill="none" xmlns="http://www.w3.org/2000/svg">
<g id="average-ctc-fill">
<path id="Vector" d="M34.8497 23.334C35.983 22.6007 36.6663 21.3507 36.6663 20.0007C36.6663 18.6507 35.983 17.4007 34.8497 16.6673C34.433 16.4007 34.2997 15.884 34.5163 15.4507C35.133 14.2507 35.0997 12.834 34.433 11.6673C33.7497 10.484 32.5497 9.75065 31.183 9.68398C30.7163 9.68398 30.333 9.28399 30.2997 8.80065C30.233 7.45065 29.4997 6.23398 28.333 5.56732C27.1497 4.88398 25.733 4.85065 24.533 5.46732C24.3997 5.55065 24.2497 5.58399 24.0997 5.58399C23.7997 5.58399 23.4997 5.41732 23.333 5.15065C22.5997 4.01732 21.3497 3.33398 19.9997 3.33398C18.6497 3.33398 17.3997 4.01732 16.6663 5.15065C16.3997 5.55065 15.883 5.70065 15.4497 5.46732C14.2497 4.85065 12.833 4.88398 11.6663 5.56732C10.483 6.23398 9.74967 7.45065 9.68301 8.80065C9.68301 9.28399 9.28301 9.66732 8.79967 9.68398C7.44967 9.75065 6.23301 10.484 5.56634 11.6673C4.88301 12.834 4.84967 14.2507 5.46634 15.4507C5.69967 15.884 5.54967 16.4007 5.14967 16.6673C4.01634 17.4007 3.33301 18.6507 3.33301 20.0007C3.33301 21.3507 4.01634 22.6007 5.14967 23.334C5.54967 23.584 5.69967 24.1007 5.46634 24.534C4.84967 25.734 4.88301 27.1507 5.56634 28.334C6.23301 29.5007 7.44967 30.234 8.79967 30.3007C9.28301 30.334 9.66634 30.7007 9.68301 31.184C9.74967 32.534 10.483 33.7507 11.6663 34.434C12.833 35.1007 14.2497 35.134 15.4497 34.5173C15.883 34.3007 16.3997 34.434 16.6663 34.8507C17.3997 35.984 18.6497 36.6673 19.9997 36.6673C21.3497 36.6673 22.5997 35.984 23.333 34.8507C23.583 34.434 24.0997 34.3007 24.533 34.5173C25.733 35.134 27.1497 35.1007 28.333 34.434C29.4997 33.7507 30.233 32.534 30.2997 31.184C30.333 30.7007 30.7163 30.334 31.183 30.3007C32.5497 30.234 33.7497 29.5007 34.433 28.334C35.0997 27.1507 35.133 25.734 34.5163 24.534C34.2997 24.1007 34.433 23.584 34.8497 23.334ZM23.0163 17.084H23.983C24.6663 17.084 25.233 17.634 25.233 18.334C25.233 19.034 24.6663 19.584 23.983 19.584H23.0163C22.5663 21.134 21.2997 22.384 19.6497 22.884L22.8663 26.334C23.333 26.834 23.2997 27.634 22.7997 28.1007C22.5497 28.3173 22.2497 28.434 21.9497 28.434C21.6163 28.434 21.283 28.3007 21.033 28.034L16.0997 22.7173C15.7663 22.3507 15.6663 21.834 15.8663 21.3673C16.0663 20.9173 16.5163 20.6173 17.0163 20.6173H18.0497C18.9663 20.6173 19.7997 20.2007 20.2663 19.584H16.0163C15.3163 19.584 14.7663 19.0173 14.7663 18.334C14.7663 17.6507 15.3163 17.084 16.0163 17.084H20.2663C19.7997 16.4507 18.9663 16.034 18.0497 16.034H16.0163C15.3163 16.034 14.7663 15.484 14.7663 14.784C14.7663 14.084 15.3163 13.534 16.0163 13.534H23.983C24.6663 13.534 25.233 14.1006 25.233 14.784C25.233 15.4673 24.6663 16.034 23.983 16.034H22.5663C22.7497 16.3673 22.9163 16.7173 23.0163 17.084Z" fill="white"/>
</g>
</svg>
