<svg width="16" height="17" viewBox="0 0 16 17" fill="none" xmlns="http://www.w3.org/2000/svg">
<g id="fi_3649458" clip-path="url(#clip0_6639_21539)">
<g id="Group">
<g id="Group_2">
<g id="Group_3">
<path id="Vector" d="M13.1092 6.85534C13.0314 6.69328 12.8675 6.58984 12.6872 6.58984H9.69522L12.169 1.64325C12.2413 1.49812 12.234 1.32556 12.1488 1.18731C12.0628 1.04906 11.9117 0.964844 11.7497 0.964844H6.12466C5.92966 0.964844 5.75479 1.08616 5.68613 1.26881L2.87363 8.76881C2.8196 8.913 2.83975 9.07416 2.92672 9.20047C3.01463 9.32681 3.15835 9.40234 3.31216 9.40234H6.46157L4.73213 16.3826C4.67904 16.5963 4.78157 16.8183 4.97932 16.9163C5.17647 17.0135 5.415 16.9613 5.55335 16.7891L13.0533 7.35156C13.166 7.21056 13.188 7.01784 13.1092 6.85534Z" fill="url(#paint0_linear_6639_21539)"/>
</g>
</g>
</g>
</g>
<defs>
<linearGradient id="paint0_linear_6639_21539" x1="7.99988" y1="16.9648" x2="7.99988" y2="0.964844" gradientUnits="userSpaceOnUse">
<stop stop-color="#FD5900"/>
<stop offset="1" stop-color="#FFDE00"/>
</linearGradient>
<clipPath id="clip0_6639_21539">
<rect width="16" height="16" fill="white" transform="translate(0 0.964844)"/>
</clipPath>
</defs>
</svg>
