<svg width="40" height="40" viewBox="0 0 40 40" fill="none" xmlns="http://www.w3.org/2000/svg">
<path d="M24.8371 5.95065L23.9038 10.734H14.7371L13.8538 6.05065C13.7871 5.81732 13.7871 5.61732 13.7871 5.53398C13.7871 4.31732 14.7704 3.33398 15.9704 3.33398H22.6704C22.8038 3.33398 23.0204 3.33398 23.2538 3.41732C24.3538 3.70065 25.0538 4.80065 24.8371 5.95065Z" fill="white"/>
<path d="M26.4535 30.65L20.7702 36.05C20.3202 36.4667 19.7702 36.6667 19.2202 36.6667C18.6369 36.6667 18.0535 36.4333 17.6202 35.9667L12.3035 30.6167C11.7868 30.0833 11.5535 29.3333 11.7202 28.6167L14.6035 11.25H23.9035L27.1035 28.6667C27.2369 29.3667 27.0035 30.1167 26.4535 30.65Z" fill="white"/>
</svg>
